<svg xmlns="http://www.w3.org/2000/svg" id="Livello_1" data-name="Livello 1" viewBox="0 0 93.2 200"><defs><style>      .cls-1 {        fill: #FFFFFF;        stroke-width: 0px;      }    </style><style class="darkreader darkreader--sync" media="screen"></style></defs><path class="cls-1" d="M93.1,67c0,10.8,0,21.5,0,32.3,0,17.4-11.4,30.9-28.5,34.1-1,.2-2.1.4-3.2.4-11.3-.2-22.8.6-34-.8C12.1,131.1.2,116.4,0,100.8,0,78.9,0,56.9,0,34.9,0,16.1,13.5,1.4,32.2.4c10.3-.6,20.7-.5,31,.3,15.8,1.1,29.3,15.5,29.8,31.4.3,11.7,0,23.4,0,35.1,0,0,0,0,0,0ZM86.4,67.1c0-10.8,0-21.6,0-32.5-.2-15.9-12-27.6-27.9-27.7-8,0-16,0-24,0-15.7.1-27.6,12-27.6,27.7,0,21.6,0,43.1,0,64.7,0,15.8,12,27.7,27.8,27.8,8,0,16,0,24,0,1.9,0,3.9-.2,5.8-.6,13.2-2.8,21.9-13.5,22-27.2,0-10.7,0-21.5,0-32.3Z"></path><path class="cls-1" d="M49.9,189c4.4-3.8,8.3-7.2,12.2-10.7.9-.8,1.8-1.6,2.7-2.3,1.5-1.1,3.3-.9,4.5.5,1.2,1.3,1.2,3.1,0,4.5-.3.4-.8.7-1.2,1.1-6.3,5.6-12.6,11.1-18.9,16.7-1.7,1.5-3.5,1.6-5.2.1-6.5-5.7-13-11.5-19.5-17.2-1.3-1.1-2-2.4-1.4-4,.8-2.4,3.5-3.1,5.7-1.2,3.9,3.3,7.7,6.8,11.6,10.1.8.7,1.6,1.4,2.8,2.4,0-1.1,0-1.8,0-2.5,0-11.3,0-22.7,0-34,0-.8,0-1.6.1-2.4.3-1.8,1.5-2.7,3.2-2.7,1.6,0,2.8.9,3.2,2.5.2.8.2,1.7.2,2.6,0,11.3,0,22.6,0,33.8,0,.7,0,1.4,0,2.7Z"></path><path class="cls-1" d="M49.9,44.7c0,2.6,0,5.2,0,7.8,0,2.5-1.3,3.8-3.4,3.8-2.1,0-3.3-1.4-3.3-3.9,0-5.3,0-10.5,0-15.8,0-2.5,1.3-3.9,3.3-4,2.1,0,3.4,1.5,3.4,4,0,2.7,0,5.3,0,8Z"></path></svg>