<svg xmlns="http://www.w3.org/2000/svg" viewBox="0 0 112 118" width="100">
      <g fill="none" fill-rule="evenodd">
        <path fill="#508C54" d="m57.89 7.77 37.15 21.522v-7.726L57.89.038z"></path>
        <path fill="#2C4D94" d="M95.04 32.555v7.74L57.89 18.771v-7.733zM54.269 0l-37.24 21.547v16.8h6.67V25.44l30.57-17.707zm1.771 98.335-39.01-22.58v-8.713h6.67v4.819l32.333 18.747 32.34-18.754v-4.819h6.67v8.712z"></path>
        <path fill="#508C54" d="M.612 60.255V44.93h11.036c2.33-.012 4.761 1.145 4.761 3.911 0 1.685-.419 2.709-1.72 3.299 1.639.532 2.176 2.013 2.176 3.91 0 3.281-2.682 4.225-5.098 4.225l-11.155-.02zm3.236-13.08v4.04h6.953c1.4 0 2.488-.4 2.488-1.975 0-1.591-1.22-2.064-2.44-2.064h-7zm0 6.242v4.605h6.953c1.4 0 2.926-.248 2.926-2.287 0-1.947-1.395-2.318-2.879-2.318h-7zm14.907 6.858V44.93h11.034c1.395 0 2.503.145 3.57.783 1.406.86 1.832 1.832 1.832 3.774-.009 1.329.09 2.313-.735 3.036-.509.47-.976.72-1.556.86.656.191 1.038.456 1.464 1 .438.578.584 1.078.575 1.787v4.105h-3.127v-4.063c0-.592-.11-.804-.44-1.175-.414-.457-.912-.544-1.493-.53H21.96v5.768h-3.206zm3.197-7.966v-5.148h7.712c1.61 0 2.442 1.064 2.517 2.417.102 1.481-.87 2.731-2.617 2.731h-7.612zm14.08 7.966 7.663-15.345h4.34l7.161 15.345H51.78l-1.407-3.134h-9.335l-1.616 3.134h-3.389zm6.007-5.372 3.949-8.022 3.37 8.022h-7.32zm27.29-4.727v-1.79c-.125-.35-.264-.54-.564-.795-.481-.393-.896-.323-1.537-.408h-6.151c-.663.033-1.076.021-1.612.408-.47.34-.695.689-.841 1.25v7.079c0 .798.052 1.167.565 1.575.682.527 1.286.569 2.33.569h5.4c.837 0 1.261.023 1.81-.334.404-.286.647-.691.647-1.292V54.58h3.27v2.459c0 .93-.537 1.894-1.463 2.379-1.397.734-3.558.857-3.955.857h-6.676c-1.241 0-2.402-.123-3.584-.857-.927-.57-1.406-1.33-1.406-2.57V48.68c.032-.93.522-1.98 1.615-2.714 1.021-.678 2.082-1.035 4.012-1.035h6.003c1.487 0 3.507.145 4.315 1.17.588.732.89 1.24 1.015 2.18v1.896h-3.194zm19.077 0v-1.79c-.13-.35-.276-.54-.555-.795-.48-.393-.896-.323-1.531-.408h-6.173c-.646.033-1.067.021-1.595.408-.481.34-.707.689-.837 1.25v7.079c0 .798.041 1.167.554 1.575.674.527 1.273.569 2.33.569h5.403c.829 0 1.25.023 1.808-.334.409-.286.632-.691.632-1.292V54.58h3.279v2.459c0 .93-.529 1.894-1.454 2.379-1.4.734-3.55.857-3.947.857h-6.7c-1.229 0-2.386-.123-3.578-.857-.915-.57-1.401-1.33-1.401-2.57V48.68c.03-.93.51-1.98 1.614-2.714 1.015-.678 2.095-1.035 4.012-1.035h6.006c1.492 0 3.5.145 4.323 1.17.573.732.884 1.24 1.003 2.18v1.896h-3.193zm22.982 6.363c0 .93-.86 2.47-1.783 2.962-1.392.735-3.229.774-3.641.774h-7.596c-1.23 0-2.392-.123-3.573-.857-.93-.57-1.4-1.33-1.4-2.57V48.68c.034-.93.516-1.98 1.599-2.714 1.023-.678 2.104-1.035 4.02-1.035h6.906c1.498 0 2.801.274 3.848 1.03.828.625 1.62 1.817 1.62 2.609v7.97zm-3.157-7.717c-.13-.35-.434-.975-.73-1.231-.478-.393-.884-.323-1.537-.408h-7.068c-.66.033-1.08.021-1.594.408-.478.34-.703.689-.84 1.25v7.079c0 .798.045 1.167.559 1.575.67.527 1.275.569 2.317.569h6.314c.835 0 1.264.023 1.813-.334.404-.286.766-.78.766-1.396v-7.512z"></path>
        <path fill="#2C4D94" d="M.862 117.007H4.45v.812H0v-9.28h.862v8.468zm9.544-7.655H9.28v7.655h1.126v.812H7.302v-.812h1.115v-7.655H7.302v-.812h3.104v.812zm8.371 0h-3.575v3.222h2.679v.812H15.2v4.433h-.862v-9.28h4.438v.813zm6.9 0H22.24v3.3h2.472v.81H22.24v3.545h3.518v.812h-4.38v-9.28h4.3v.813zm14.661 0h-3.576v3.222h2.68v.812h-2.68v4.433H35.9v-9.28h4.438v.813zm2.507-.812h2.15c2.07 0 2.254 2.088 2.254 2.629 0 .954-.322 1.83-1.471 2.565l2.23 4.085h-1.046l-2.012-3.866c-.415.013-.829.013-1.243.026v3.84h-.862v-9.28zm1.679 4.614c1.173 0 1.863-.67 1.863-2.037 0-1.237-.46-1.765-1.829-1.765h-.85v3.802h.816zm7.451-4.794c2.415 0 2.542 3.093 2.542 4.819 0 1.238.08 4.821-2.542 4.821-2.553 0-2.541-3.505-2.541-4.821 0-3.88 1.15-4.82 2.541-4.82zm1.679 4.819c0-.85.115-4.008-1.679-4.008-1.84 0-1.679 3.467-1.679 4.008 0 1.057-.046 4.008 1.68 4.008.862 0 1.678-.643 1.678-4.008zm7.244-4.64h.852v9.28h-.863v-7.063l-1.724 4.55-1.691-4.55-.023 7.063h-.863v-9.28h.84l1.737 4.627 1.735-4.626zm14.19.813h-1.126v7.655h1.126v.812h-3.104v-.812H73.1v-7.655h-1.115v-.812h3.104v.812zm3.507-.812h1l2.52 6.934.034-6.934h.862v9.37h-.816l-2.714-7.489-.023 7.398h-.863v-9.28zm11.12 1.675c-.506-.502-1.081-1.044-1.794-1.044-.736 0-1.334.567-1.334 1.418 0 .49.081.928 1.196 1.688l.656.451c1.517 1.044 1.931 1.534 1.931 2.617 0 1.662-.989 2.655-2.437 2.655-1.07 0-1.864-.58-2.507-1.508l.667-.593c.402.722 1.046 1.288 1.84 1.288.862 0 1.575-.721 1.575-1.713 0-.748-.045-1.005-1.506-1.985l-.748-.503c-.817-.54-1.53-1.172-1.53-2.332 0-1.457.99-2.294 2.232-2.294.862 0 1.655.515 2.277 1.16l-.518.695zm6.934-.863h-1.127v7.655h1.127v.812h-3.105v-.812h1.116v-7.655h-1.116v-.812h3.105v.812zm3.472-.812h2.105c1.598 0 2.668 1.018 2.668 4.639 0 3.571-.989 4.64-2.794 4.64h-1.979v-9.28zm.863 8.467h1.058c1.196 0 1.99-.373 1.99-3.828 0-3.557-.91-3.827-2.013-3.827h-1.035v7.655zm10.935-7.655h-3.437v3.3h2.472v.81h-2.472v3.545H112v.812h-4.381v-9.28h4.3v.813z"></path>
      </g>
</svg>