<svg version="1.1" id="Livello_1" xmlns="http://www.w3.org/2000/svg" xmlns:xlink="http://www.w3.org/1999/xlink" x="0px" y="0px" viewBox="0 0 700 586.2" enable-background="new 0 0 700 586.2" xml:space="preserve">
<path fill="#000000" d="M321.8,6.9c25.4-4.5,52-3.1,76.7,4.5c29.6,9,56.5,26.8,76.5,50.5c15.7,18.6,27.3,40.7,33.3,64.3  c6.4,24.6,6.8,50.7,1.4,75.5c-4.9,22.4-14.6,43.8-28.3,62.2c-12.5,16.9-28.4,31.3-46.3,42.3c0,5.6,0.1,11.3,0,17  c-0.4,8-7.6,14.3-16,14.2H282.3c-7.9,0.4-15.4-6.4-15.7-14.3c-0.1-5.6,0-11.3,0-16.9c-21.1-12.8-39.2-30.5-52.6-51.3  c-12-18.7-20.1-39.9-23.7-61.8c-3.4-21.2-2.6-43.1,2.3-64c7.4-31.5,24.7-60.6,48.7-82.4C263.7,26.2,291.9,12.2,321.8,6.9 M340.9,7.1  c-26.8,1.6-53.2,10.2-75.9,24.7c-20.3,12.9-37.6,30.4-50.2,50.8c-12.7,20.5-20.7,43.9-23.1,67.9c-3.4,32.4,3.3,65.8,19.2,94.3  c13.2,23.9,32.6,44.2,55.8,58.6c0.7,0.5,1.6,0.7,2.4,1c0,5.9,0,11.8,0,17.7c-0.1,5.7,4.1,11.1,9.6,12.5c2.2,0.6,4.6,0.4,6.9,0.5  c44.8,0,89.7,0,134.5,0c6.4,0,12.2-5.5,12.6-11.8c0.2-6.1-0.2-12.2,0.2-18.3c1.5-1.2,3.3-2.1,4.9-3.2c29.2-18.8,51.9-47.4,63.7-80  c8.4-23.2,11.3-48.4,8.5-72.9c-3-27.1-13.2-53.2-29.2-75.3c-18.7-26-45.4-46.3-75.6-57.1C384.6,8.8,362.6,5.8,340.9,7.1 M333,25.3  c3.6-0.6,7.5-0.2,11-1.5c0.1,0.9,0.2,1.8,0.4,2.7c-2.8-0.5-5.6,0.3-8.4,0.5c0.1,0.9,0.2,1.8,0.3,2.7c1.9-0.3,4-0.1,5.8-1.1  c0,0.9,0,1.7,0,2.6c-1.9-0.1-3.7,0.1-5.6,0.3c0.1,1.1,0.2,2.2,0.3,3.3c2.8-0.5,5.8-0.1,8.4-1.4c0.1,0.9,0.2,1.8,0.4,2.8  c-3.8-0.5-7.7,0.5-11.5,0.8c0.5-1.7,0.1-3.4-0.1-5.1C333.7,29.8,333.5,27.5,333,25.3 M351.9,24.3c1.8-0.1,3.6,0.1,5.3-0.5  c0,0.9,0,1.7,0,2.6c-1.5-0.3-3-0.4-4.6-0.4c0.1,3,0.3,6.1,0.2,9.1c0.2,0.2,0.5,0.6,0.7,0.8c-1.2,0.1-2.4,0.1-3.7,0.1  c0.9-3.2,0.2-6.6,0.2-9.9c-1.5,0-3.1-0.1-4.5,0.4c0-0.7,0-2,0.1-2.7C347.7,24.6,349.8,24.3,351.9,24.3 M369.2,30.8  c-1.9-1.7-0.7-5.2,1.8-5.5c2.9-0.8,5.6,0.9,8.2,2.1c-0.5,0.8-1,1.5-1.6,2.3c-1.3-1.9-3.8-2.9-6-2.4c-0.8,0.3-1.1,0.9-0.8,1.7  c2.2,1.1,5,0.9,6.8,2.7c1.5,1.7,0.5,4.5-1.6,5.1c-3.1,1.1-6.2-0.5-8.9-2c0.5-0.8,0.9-1.6,1.4-2.5c1.2,1.9,3.7,3.1,6,2.6  c0.7-0.1,1.8-1.1,1-1.8C373.5,32.1,371,32.3,369.2,30.8 M361.4,27.7c1.3-0.8,3.3,0.4,2.9,2c0.2,1.5-1.9,2.4-3,1.6  C359.9,30.6,360,28.3,361.4,27.7 M381.8,29.6c1.7-1.9,4.6-2.1,7-1.4c2.1,0.5,3.6,2.2,5.3,3.4c-0.7,0.6-1.3,1.2-1.9,1.8  c-1.2-3.9-7.9-5-9.2-0.6c-1.6,4.5,5.3,7.4,8.2,4.3c0.3,0.8,0.5,1.7,0.8,2.5c-3.2,0.8-6.8,1.1-9.6-1  C379.6,36.4,379.4,31.9,381.8,29.6 M312.1,30.3c2.3-2.2,5.8-2,8.8-1.7c-0.2,0.9-0.4,1.7-0.5,2.6c-2-1.1-4.7-1.2-6.5,0.4  c-0.6,0.8-0.5,1.4,0.4,1.8c2.1-0.2,4.2-0.8,6.3-0.5c2.5,0.7,3,4.3,1,5.8c-2.5,2.1-5.8,1.9-8.9,1.7c0.1-1,0.3-1.9,0.4-2.9  c1.8,1.6,4.5,1.4,6.3,0.2c0.7-0.5,1.5-1.6,0.5-2.2c-2.4-0.5-4.9,1.1-7.2,0.1C311,34.6,310.6,31.8,312.1,30.3 M326.1,29.7  c2.4-1.5,4.5,2.4,2.1,3.7C325.8,34.4,323.9,31.1,326.1,29.7 M397.2,31c1.1,0.4,2.3,0.8,3.4,1.1c-1.3,1.1-1.5,2.8-2.1,4.3  c-0.7,2.3-1.8,4.5-1.9,6.9c-1.1-0.4-2.2-0.8-3.3-1.1c1.3-1.5,1.6-3.5,2.3-5.2C396.2,35,397.3,33.1,397.2,31 M304.3,32.6  c1.2-0.4,2.3-0.8,3.5-1.2c-0.2,2.2,1.1,4.2,1.6,6.3c0.7,1.7,0.9,3.6,2.3,4.9c-1.1,0.4-2.2,0.7-3.2,1.1c-0.2-2.4-1.3-4.5-2-6.7  C305.8,35.5,305.6,33.7,304.3,32.6 M302.3,32.7c0.4,1,0.8,1.9,1.2,2.8c-1.6,0-3,0.7-4.4,1.3c1.5,2.9,2.1,6.4,4.4,9  c-1.1,0.4-2.1,0.8-3.1,1.3c-0.5-3.3-2.4-6.2-3.5-9.3c-1.1,0.5-2.3,1-3.4,1.4c-0.1,0.3-0.3,0.7-0.4,1c-0.5-0.9-0.9-1.9-1.4-2.8  c2.3-0.1,4.3-1.5,6.5-2.3C299.5,34.5,301.4,34.2,302.3,32.7 M403.1,32.5c2.4,1.1,4.9,2.1,7.4,3.2c1,0.4,2.1,1,3.2,0.7  c-0.5,1-0.9,1.9-1.2,2.9c-1.8-2.3-5-2.5-7.4-3.9c-0.4,0.9-0.8,1.7-1.1,2.6c1.8,0.7,3.6,1.8,5.6,1.9c-0.4,0.9-0.8,1.8-1.2,2.7  c-0.1-0.3-0.4-0.7-0.6-1c-1.5-0.6-3-1.2-4.5-1.9c-0.4,1-0.8,2-1.3,3c2.7,0.9,5.2,2.8,8.1,2.8c-0.4,0.9-0.8,1.8-1.2,2.8  c-1-1.3-2.6-1.7-4-2.3c-2.2-0.9-4.3-1.9-6.5-2.6c1.4-1.2,1.8-3,2.5-4.6C401.7,36.8,402.9,34.8,403.1,32.5 M416.4,38.5  c1,0.6,2,1.2,3,1.7c-0.3,0.6-0.5,1.2-0.2,1.9c0.7,2.7,1.5,5.5,2.2,8.2c1.2-2.3,2.8-4.5,3.6-7.1c0.8,0.5,1.6,1,2.4,1.4  c-2.2,3.3-4.3,6.7-5.6,10.4c-0.9-0.5-1.8-1.1-2.7-1.6c0.3-3.6-1.6-6.9-2.2-10.4c-1.2,2.5-3,4.6-3.6,7.3c-0.8-0.5-1.7-1-2.5-1.5  C413,45.6,415.1,42.2,416.4,38.5 M284,41.9c1.2-0.6,2.3-1.2,3.5-1.9c0.5,1.6,2.2,2.3,3.5,3.3c2.3,1.5,4.4,3.4,6.9,4.5  c-1.3,0.6-2.6,1.3-3.9,2c0.4-1.4-1.1-1.8-1.8-2.5c-1.5,0.9-3.1,1.7-4.6,2.5c0,0.8,0,1.5,0,2.3c0.3,0.1,0.8,0.4,1,0.6  c-1.1,0.6-2.2,1.2-3.3,1.9c0.5-4-0.1-8-0.2-12.1C284.8,42.4,284.3,42.1,284,41.9 M287.2,43.7c0,1.5,0.1,3,0.2,4.5  c1.1-0.6,2.2-1.2,3.3-1.8C289.5,45.4,288.3,44.5,287.2,43.7 M279.6,43.8c0.5,0.7,0.9,1.5,1.4,2.2c-1.5,0.4-2.7,1.3-4,2.2  c2,2.6,3.2,5.9,5.8,8c-1,0.6-1.9,1.2-2.8,1.8c-1.2-3.1-3.5-5.6-5.1-8.5c-1.3,0.8-2.6,1.7-3.7,2.8c-0.5-0.8-0.9-1.5-1.4-2.2  c1.8-0.4,3.2-1.5,4.7-2.5C276.3,46.4,278.2,45.4,279.6,43.8 M428.2,47.9c0.6-0.7,1.1-1.5,1.6-2.2c1.3,1.6,3,2.5,4.6,3.7  c1.5,1.1,3,2.3,4.8,2.8c-0.5,0.7-1,1.5-1.5,2.2c-0.9-1.2-2.2-2-3.4-2.8c-1.8,2.7-4,5.3-5.4,8.3c-0.9-0.7-1.9-1.3-2.8-1.9  c2.7-2,4-5.3,6.1-7.8C430.9,49.2,429.6,48.3,428.2,47.9 M266.1,53.6c0.9-0.6,1.8-1.3,2.7-2c0.5,1.9,2,3.3,3.2,4.9  c1.3,1.5,2.2,3.5,4,4.5c-0.9,0.7-1.8,1.3-2.7,2.1c-0.7-2-2.2-3.4-3.3-5.1C268.7,56.4,267.7,54.7,266.1,53.6 M433.3,62.9  c2.8-2.7,5.2-5.9,7.4-9.1c0.8,0.6,1.5,1.3,2.3,1.9c-2.7,2.8-5.1,5.9-7.2,9.1C434.9,64.2,434.1,63.5,433.3,62.9 M262.2,57.2  c2.2-1.4,5.3,1,4.8,3.4c-0.3,0.7-0.6,1.4-0.9,2c2,0.6,4,1.1,6,1.4c-1,0.7-1.9,1.5-2.9,2.3c-1.5-1.1-3.4-1.3-5.2-1.8  c-0.8,0.8-1.7,1.5-2.5,2.3c1.1,1.2,2.1,2.4,3.2,3.5c-0.7,0.6-1.4,1.3-2,1.9c-2.3-3.2-5-6.2-7.8-8.9  C257.4,61.4,259.5,58.9,262.2,57.2 M262.6,59.4c-1.7,0.9-2.9,2.4-4.4,3.6c0.7,0.8,1.4,1.6,2,2.3c1.3-1.3,2.9-2.4,4-3.8  C265.2,60.5,263.8,58.8,262.6,59.4 M448.4,60.5c0.8,0.8,1.7,1.6,2.5,2.3c-1.4,1.6-1.6,3.9-2.3,5.8c-0.6,2.2-1.6,4.3-1.5,6.6  c-1-1.1-2.1-2-3.2-2.9c0.1-0.2,0.2-0.5,0.3-0.7l0.6,1c0.3-1,0.6-1.9,1-2.8c-1.3-1.2-2.6-2.4-4-3.6c-0.9,0.5-2,0.9-2.5,1.9  c-0.8-0.8-1.5-1.5-2.4-2.3c2.8-0.9,5.5-2.2,8.3-3.2C446.4,62,447.8,61.7,448.4,60.5 M443.4,65.5c0.9,0.9,1.9,1.7,2.8,2.6  c0.5-1.5,1-2.9,1.5-4.4C446.3,64.3,444.8,64.9,443.4,65.5 M348.5,62.9c2.8-0.6,5.7-1.2,8.6-1.2c2.5,0.1,4.4,2.1,6.9,2.3  c2,0.3,4.3,0.5,5.7,2.2c1.5,1.9,0.8,4.6,2.1,6.6c1.9,3.4,2.1,7.4,1.8,11.2c-0.4,3.3,1.6,6.1,2.1,9.2c0.4,2.1-2,3.1-2.6,4.9  c-1.1,3.1-2,6.3-2.5,9.5c-0.2,1.6-1.6,2.9-3.2,3c-1.9,0.3-4.2,0.2-5.7,1.7c-1.2,1.2-2.3,3.3-1,4.8c2.8,1.7,6.3,0.4,9.1,1.9  c3.6,1.4,5.2,5.1,7.8,7.6c1.2-7.7,2.5-15.3,2.7-23.1c0.1-2.6-0.6-5.6,1.4-7.7c1.5-1.4,3-2.9,4.9-3.6c2.6-0.4,5.3-0.2,7.9,0.4  c2,0.5,3.1,2.5,3.3,4.4c1,7.5,1.9,15.1,2.9,22.6c0.3,3,0.9,5.9,1.9,8.8c0.6,1.8,2.8,1.2,4.2,1.1c4.4-0.7,8.8-0.5,13.3-0.5  c2-0.1,3.9,0.6,5.9,0.8c0.7-3.2,0.2-6.6,0.9-9.8c0.6-1.9,3-2.4,4.8-2.3c1.7,0.1,4,0.4,4.8,2.2c1,2.6-0.7,5.5,0,8.1  c0.4,1.4,1.8,2.1,2.9,2.8c5.9,3.2,11.9,6.3,17.8,9.4c1.3,0.6,2.1,2.1,1.9,3.5c-0.5,1.8-1.5,3.4-1.8,5.3c-0.9,5.4,0.6,10.7,0.4,16.1  c-0.3,2.5-2.2,4.3-4.2,5.7c-2.7,1.9-5.3,3.9-7.9,6c-2.1,1.8-4.9,2.2-7.6,1.8c-3.9-0.6-7.7-1.9-11.6-2.2c-1.5-0.3-2.5,1.3-2.1,2.6  c0.7,6.7-2,13.4-6,18.6c0.2,1.8,1,3.4,1.3,5.1c1.3,8.2,3.1,16.4,3.4,24.8c0.3,7.9,0.5,15.8,0.1,23.7c-0.7,7.2-2.5,14.2-3.3,21.4  c0.7,2.9,3.6,4.8,5.4,7.1c2.7,2.6,0.3,7.8-3.3,7.9c-18.9,1.3-37.9,2.5-56.8,3.6c-5.9,0.3-8.9,6.4-14.4,7.9  c-3.5,1.3-7.2,0.4-10.8,0.6c-2.3-0.1-4.8,0.6-6.9-0.5c-1.9-1-2.8-3-4.4-4.3c-1.2-1-2.8-0.9-4.3-0.8c-8.6,0.4-17.3,0.5-25.9,1.2  c-3.7,0.4-7.7-0.9-9.8-4.1c-1.3-1.9,0.1-4.8-1.8-6.3c-1.6,0.1-3.3,0.8-5,0.2c-3.2-0.9-5-3.8-6.9-6.2c-1.6-2.2-3.7-4.3-4.1-7.2  c-0.6-4.6,0.2-9.2-0.1-13.9c0-1.2-0.2-2.5,0.5-3.5c1.6-2.4,3.5-4.7,5.2-7c4.1,0.1,7.3-3.1,11-4.2c4,0.5,5.9,4.6,8.7,6.9  c1.6,1.4,3.5-0.1,5.2-0.5c2.4-1,5.1,0.1,7.4-1.2c1.7-0.9,3.4-1.6,5.1-2.3c2.1-1,3-3.4,3.1-5.6c0.6-9.5,1.1-19,2.2-28.5  c0.6-5.2,2.7-10,4.5-14.8c-0.7-0.8-1.5-1.6-2.2-2.3c-1.6,2-1.8,4.6-2.5,6.9c-1.2,4.5-2.1,9.2-4.2,13.4c-1.6,3.1-4.1,5.7-7.3,7.1  c-1.7,0.8-3.6,0.3-5.4,0.1c-0.3-0.7-0.4-1.5-0.4-2.2c1-7.4,3.8-14.5,3.8-22c-1.8,1.7-3.8,3.5-4.7,5.8c-0.6,1.6-0.4,3.3-0.9,4.9  c-0.6,1.4-1.9,2.3-2.8,3.5c-1.4,1.6-1.7,3.8-2.5,5.7c-1.1,3-2.9,5.8-5.4,7.9c-2.9,2.2-1.4,6.5-3.7,9.1c-1.2,1.6-3.6,1.6-5.3,1  c-2-1-1.6-3.6-1.9-5.4c0-1.6-0.7-3-1.5-4.3c-1.5-2.7-1.1-5.9-1.4-8.9c-0.9-11.1-3.3-21.9-4.5-33c-0.4-3.2,1.4-6.2,0.9-9.3  c-0.4-1.9-1.2-3.8-1.4-5.7c-0.7-6.7-1.5-13.5-1.4-20.3c-0.2-11.2,2.5-22.3,5.9-32.9c1.8-5.7,4.1-11.2,7.5-16.1  c3-4.2,7.1-7.7,11.8-10.1c2-1,4.2-1.7,6.5-1.7c2-0.1,4.1,0.2,5.8-1c1.4-1.1,2.3-2.7,3.6-3.9c3.3-3.3,7.8-5.8,12.6-5.6  c2.7,0,4.9,2,7.5,2.7c1.2-1.5,0.9-3.7,1.7-5.4C334.4,68.4,341.5,64.4,348.5,62.9 M342.7,66.7c-2.9,2.1-5.2,4.8-7.7,7.3  c-2.4,2.3-0.5,6-2.4,8.5c-1.3,2.3-3.8,3.6-5.2,5.8c-1.7,3.4,0.3,7.1,0.2,10.6c0.3,2.8-1.8,5.7-0.1,8.3c1.1,2,3.5,2.1,5.5,2.6  c1.6,0.5,2.1,2.6,3.8,2.8c2.6-1.7,5-3.9,7.1-6.1c1.6-1.7,1.4-4.2,1.7-6.4c0.7-1.8,2.9-2.3,3.6-4.1c0.1-1.3-0.3-2.7,0-4  c0.8-2.5,3.2-4.3,3.3-7c-0.1-2.6-2.7-3.9-4-5.8c-1-1.1-1.5-3.1-0.1-4c2.3-1.4,4.9-2.2,7.4-3.2c-0.3,0.9-0.3,1.9-0.9,2.8  c-1,1.5-3.1,1-4.3,2.2c-0.4,0.7-0.3,1.4,0.3,2c1.3,1.8,3.1,3.3,3.7,5.6c0.3,3.2-3,5.4-2.7,8.6c-0.1,1.7,1,3.6,0,5.1  c-1.2,0.9-3,1.1-4,2.4c-1.4,1.8-0.6,4.2-1.5,6.2c-0.9,2.1-2.8,3.4-4.6,4.7c-3,2.1-5.2,5.2-6.5,8.6c-0.2,0.6-0.7,1.8,0.3,2.1  c4.5,1.4,9.5,1.2,13.9,2.9c3.3,1.2,5.4,4.2,8.7,5.4c1.4-1,1.3-3.1,0.7-4.5c-0.6-1.7-2.4-2.4-3.7-3.5c-0.5-0.8-0.1-1.8,0.3-2.6  c1.3-3.1,2.7-6.1,4-9.2c-1-1.7-2.2-3.2-3.1-4.8c2.5-0.2,4.1,2.3,6.5,2.7c1.7,0.5,4.3,0.5,5.1-1.4c1-3.2,1.1-6.7,2.3-9.9  c0.9-1.6,3.4-2.4,2.9-4.6c-0.8-2.8-1.7-5.6-2.7-8.4c-1.9-1.6-4.2,0.8-6.3,0.8c1-2.6,3.9-3.3,5.9-4.7c1.3-0.9,0.9-2.6,0.5-3.8  c-0.4-1.6-1.5-3.4-3.3-3.4c-4.2,0.5-4.9,7.3-9.7,6.2c2.8-3.7,6.5-6.5,9.9-9.6c1.2-1.2-0.3-2.6-1.5-2.8c-3.7-1.2-7.3-2.7-11.2-3.3  C350.8,64.3,346.7,65.4,342.7,66.7 M309.4,88.9c1.2,1.9,3,3.2,4.1,5.2c1.7,2.7,2.3,6,3.7,8.9c2.4-1.9,5.3-3.6,6.7-6.5  c1.2-2.3-0.2-5,0.8-7.3c0.6-1.5,1.8-2.6,2.4-4c0.5-2-1.1-4.1-3-4.7c-2-0.6-4.3-1.3-6.3-0.3C314,81.8,310.9,85,309.4,88.9 M297.6,91  c-4.4,0.8-8.1,3.6-10.8,7c-4.1,5.1-7.7,10.8-9.3,17.2c-0.4,1.7-0.8,3.4-0.5,5.2c0.7,0.5,1.5,0.3,2.3,0.2c2-0.3,4.1-0.7,5.9-1.6  c2-1.1,3-3.4,3.9-5.4c1.6-3.9,3.6-7.7,6.5-10.9c0.7-0.9,1.8-1.3,2.9-1.7c-0.6,1.2-1.5,2.4-2.3,3.4c-2.9,3.6-5,7.7-6.1,12.2  c-0.2,0.9-0.5,2,0.1,2.8c1.2,1.9,4.5,0.8,4.7-1.3c1.1-3.9,3.5-7.3,6-10.5c-0.6,3.8-3.1,6.9-3.9,10.6c-0.3,1.1,0.4,2.2,0.8,3.2  c2.5-2.5,4-5.7,5.7-8.7c0.5-1.1,1.6-1.8,2.7-2.4c-0.6,3.4-2.6,6.4-3.7,9.6c-0.3,1-1.2,2.2-0.3,3.2c0.5,0.6,1.5,0.9,2.1,0.3  c2.1-2.5,2.7-6.3,5.7-8c-0.9,2.6-2.3,5.1-3.1,7.7c0.4,0.7,0.7,1.4,1.1,2.1c2.9-1.4,3.3-5,5.6-7c0.1,2.5-1.8,4.9-0.8,7.4  c0.6-0.1,1.1-0.3,1.7-0.4c0.8-1.2,1.5-2.6,2.9-3.3c-0.8,2.2-1.5,4.4-1.2,6.8c1.9-0.8,3.3-2.2,4.4-4c0.2,0.1,0.5,0.3,0.7,0.4  c-0.6,1.4-1.2,2.9-1.5,4.5c0.6,0.3,1.2,0.5,1.9,0.8c1.1-2,1.9-4.2,3.6-5.9c2.1-2.3,5.3-3.3,7.1-5.9c-3.6-3.2-9-0.3-12.7-3.1  c-2.4-1.6-3.6-4.4-4-7.2c-1-5.2-1.3-10.9-5-15C307,89.9,301.8,89.9,297.6,91 M388,94.2c-1.5,0.8-3.1,1.8-4.3,3.1  c-0.1,1.7,0.1,3.4,0.5,5.1c0.1,0.7,1,1.3,1.7,1.2c2.5-0.2,5.1-0.4,7.6-0.7c0.9-0.1,2.1-0.4,1.9-1.6c-0.1-2.1-0.3-4.4-2-5.8  C391.9,94.4,389.8,93.2,388,94.2 M318.5,104.3c-0.4,0.4-0.7,0.9-1,1.3c0.3,0.3,0.5,0.5,0.8,0.8c0.4-0.4,0.8-0.8,1.2-1.1  C319.1,104.9,318.8,104.6,318.5,104.3 M319.1,107.9c-0.9,1,0,2.4,0.5,3.3c2.1-0.8,2.6-3.4,3.9-5.1c-0.1-0.3-0.4-1-0.5-1.3  C321.6,105.8,320.2,106.7,319.1,107.9 M384.5,107.7c-0.1,9.4-0.9,18.8-1.5,28.2c0,2.1-2.6,1.4-4,1.8c-2.3,0.3-1.7,3.1-2.1,4.7  c2.3,0.8,5.1,0.7,6.8-1.2c1.9-2.3,2.9-5.2,4.3-7.8c0.6-0.9,0.9-2.3,2.1-2.6c-0.6,2.3-1.5,4.5-2,6.8c-0.1,0.8-0.5,1.9,0.5,2.3  c2-0.1,3.9-0.4,5.9-0.5c0.9-0.1,2.1-0.1,2.4-1.2c-0.6-2.3-1.8-4.5-2-6.9c3.2,1.8,3.6,6.2,6.9,8c0.5-3.4-1.5-6.5-1.9-9.8  c-1.1-7-2.1-13.9-3.2-20.9c-0.2-1.4-0.7-3.1-2.4-3.1c-2.8-0.2-5.7,0.1-8.6,0.4C385.1,106.1,384.5,106.9,384.5,107.7 M321.1,114.6  c1.9-0.6,2.9-2.3,3.1-4.2C322.2,110.7,320.5,112.5,321.1,114.6 M363,121c0.1,2.8,0.9,5.6,0.8,8.5c-0.2,1.9-2.1,3.1-3.9,3.6  c-1.9,0.6-3.5-0.8-5.4-1.1c-0.2,0.7-0.4,1.4-0.6,2.1c1.2,2.9,2.8,5.7,3.6,8.7c1.8,6.4,3.5,12.8,5.1,19.3c-1.5-0.4-1.6-2.1-2.1-3.3  c-2-7.4-3.6-15-6.9-22c-0.4-0.6-0.8-1.1-1.3-1.5c-0.2,0.3-0.7,1-0.9,1.4c0.3,2.5-1.8,4.4-2.1,6.8c0.2,2.2,2.6,3.4,2.5,5.7  c0.1,2.8,1.6,5.1,3.1,7.3c2.2,3.2,3.3,6.9,4.6,10.5c0.4,0.9,1,2.2,2.2,1.8c1.9-0.4,4.3-1.7,4.3-4c0.1-4.2-0.2-8.5-0.1-12.7  c-0.2-5.2-1-11,2.4-15.3c1.9-3.5,7.8-0.3,9.3-4.3c-0.4-2.6-2.6-4.5-3.9-6.8c-1.8-2.4-3.3-6.2-6.9-6.2  C365.5,119.6,363.6,119.5,363,121 M359.1,120.3c-0.4,3.1,1.1,6.2,2.8,8.7C362.4,126,362.2,121.8,359.1,120.3 M430.3,121.9  c-0.9,2.2-1.7,4.7-1,7.1c1.7,4.5,5.7,7.9,7.1,12.6c-2-1.5-3.4-3.5-5.1-5.2c-1.3-1.3-2.5-3-4.5-3.1c1,4,4.3,6.7,6.1,10.4  c-3.3-1-4.2-4.8-6.7-6.8c-0.9-1.1-2.5-0.9-3.8-1c-4.8-0.2-9.7-0.3-14.5-0.3c-1.1,0-2.4,0-3.4,0.7c-0.6,2.1,1.1,4.1,1,6.2  c-0.7,0.3-1.5,0.6-2.3,0.8c-1.7,0.4-2.4-1.9-4-1.9c-1.8,0-3.6,0-5.4,0.2c-0.2,0.2-0.5,0.7-0.7,1c2.1,0.5,4.3,0.4,6.1,1.7  c2.3,1.5,4.4,3.4,6.7,4.9c2.4,1.7,5.1,3.4,6.5,6.2c0.9,1.6,0.7,3.4,1.2,5.1c1.4,0.3,2.9,0.4,4.3,0.7c-1,1.7-3.8,0.4-4.7,2.2  c0,0.9-0.1,2.3,1,2.5c3.4,0.3,6.9-0.2,10.3-0.1c5.4-0.2,10.8,0,16.1-1c1-0.1,1.7-0.8,2.4-1.3c0-5.3-0.3-10.5-0.5-15.8  c-0.1-2.2,1.5-4.3,0.6-6.5c-2.2-4.9-7.2-7.6-9.5-12.4c-0.9-1.8-0.5-3.8-0.7-5.7C432.8,121.7,431.1,120.5,430.3,121.9 M283.7,122.5  c-2.5,2.9-3.7,6.7-4.7,10.3c-1.4,4.8-1,9.8-1.2,14.7c-0.1,3,0,6.1,1.2,8.9c0.9,1.8,2.8,0.7,4.3,0.5c1.8,0,3.3,1.4,5.1,1.6  c1.3,0,2.2-1.1,3.4-1.2c1.2,0.2,2.4,0.9,3.6,1c1.9-0.1,3.7-0.9,5.1-2.2c1.1-1,1.2-2.6,1.5-4c1.1-5.3,0.9-10.9,2.7-16.1  c0.5-1.8,1.7-3.4,1.6-5.3c0.1-1.2-0.8-2-1.4-2.9c-2.7,0.1-3.5,2.9-4.2,5c-1.6,5.9-3.6,11.6-4.4,17.7c-0.1,1.1-0.6,2.1-1.1,3.1  c-0.5-1-0.8-2.1-0.5-3.3c0.9-7.7,3.3-15,5.1-22.5c0.4-1.1,0-2.2-0.3-3.2c-2.5-0.2-4.6,1.7-5.1,4.1c-1.7,6.3-3.3,12.6-4.6,19  c-0.4,1.2-0.5,2.7-1.9,3.2c0.9-6,2.1-12,3.3-18c0.5-2.8,2.2-5.3,2.8-8c0.3-1.3-0.9-2.4-2.2-2.1c-3.2,0.1-4.7,3.5-5.8,6  c-2.2,6.5-1.9,13.5-2.3,20.2c0,1-0.6,1.8-1.1,2.7c-0.6-1.8-0.7-3.7-0.6-5.6c0.4-5.7,0.2-11.5,2.1-16.9c0.6-2.3,2-4.4,2.2-6.8  C285.9,121.5,284.3,121.6,283.7,122.5 M274.6,125.2c-1.2,1.8-1.2,4-1.6,6.1c-0.8,6.6-1.5,13.2-1.9,19.8c-0.2,2.2,1.5,3.9,3.4,4.5  c0.3-0.5,0.5-1.1,0.7-1.7c0.4-7.7,1.3-15.4,2.3-23.1c0.3-2.3,1.8-4.1,2.6-6.2c-0.6-0.4-1.1-0.8-1.7-1.2  C277.1,123.6,275.5,123.9,274.6,125.2 M326,126.3c-2,2.1-2.4,5.1-3.3,7.7c-1,3-3.7,4.8-5.1,7.5c-3.1,5.6-3.3,12.1-5.7,17.9  c-1.3,4.2-4.9,7.7-4.6,12.4c0.2,4.8,3.7,8.5,6.5,12c2.1,2.5,4.2,5,6.3,7.5c1.5,1.8,4,2.7,6.3,2.7c5.6-0.1,11.1-0.8,16.7-0.6  c4.8,0,8.5,3.9,13.4,3.7c5.9-0.5,11.5-2.3,17.2-3.5c1.2-1.8,1.4-4.1,1.9-6.2c1-5,2.1-10,3.1-15c0.3-1.3-0.7-2.4-2-2.4  c-2.3,0-4.1,1.6-5.8,3c-6.2,5.5-13.5,9.5-20.6,13.5c-1.2,0.7-2.6,1.2-3.9,1.6c7-5.8,15.5-9.5,22-15.8c0.6-0.7,1-1.5,1.5-2.3  c-0.8-0.4-1.6-0.9-2.5-0.9c-3.7-0.1-6.6,3-10.3,2.9c-1.3-0.6-2.7-1.4-4.2-0.8c-2.1,0.2-6.1,1.2-6.4-1.9c0.7-2.6,2.7-4.7,2.6-7.5  c-1.5,0-3,0.2-4.4,0.8c-3.3,1.2-6.9,0.2-10.2,1.3c-4.2,1-8.3,2.7-12.6,3.1c1.6-1.8,3.9-2.7,5.7-4.3c4.5-3.8,8.3-8.2,12.5-12.3  c0.7-0.8,1.9-1.5,3-1c0.4,0.6,0.8,1.3,1.1,1.9c-1.5,0.7-3.2,1.2-4.5,2.3c-1.1,1-1.5,2.4-2.1,3.7c3.9-1.1,7.8-2.3,11.7-3.5  c0.7-1.3,1-2.8,0.5-4.3c-0.5-2.2-2.8-3.4-3.8-5.3c-0.7-2.5,1.8-4.4,1.9-6.8c0.4-2.1-1.7-3.8-1.3-5.9c0.1-1.5,1-2.8,1.5-4.1  c-0.1-1-1.3-1-2.1-1.2c-5-0.9-9.9-1.9-14.9-2.7C328.8,122.6,327.4,124.9,326,126.3 M308.9,130.5c-3.1,5.8-3.5,12.4-4.8,18.8  c-0.4,2.5-1.3,5.4,0.5,7.6c1.7-0.7,3-2.1,2.9-4c-0.1-6.5,2-12.8,4.6-18.6c0.3-1,1.2-2.2,0.5-3.3C311.9,129.6,309.6,129,308.9,130.5   M403.6,132.5c0.8,0.5,1.6,1.2,2.6,1.2c3.9,0.2,7.8-0.2,11.6-0.3c1.5,0,2.9-0.4,4.1-1.2c-3-1.1-6.3-0.8-9.4-0.9  C409.5,131.4,406.1,130.6,403.6,132.5 M314.8,134.7c-3,4-4.2,9-4.7,13.9c-0.1,1.8-0.6,3.8,0.6,5.3c2.2-4,2.4-8.8,4.8-12.7  c1.9-2.3,4.5-4.8,4-8.1C317.7,132.4,315.8,133.1,314.8,134.7 M372.9,135.5c-0.8,0.6-1.5,1.2-2.3,1.8c0.4,1.6,1.8,2.6,3.1,3.4  c1.1-1,2.3-2.3,2.2-3.9C375.4,135.8,374,135.9,372.9,135.5 M443.4,135.5c0.4,2.5,2.4,4.4,4.3,5.8c1.4,1,2.8-0.4,3.9-1.2  C449.6,137.6,446.4,136.4,443.4,135.5 M368.4,140.4c-1.3,1.5-1.6,3.6-1.5,5.5c0.4,6,0.8,12,1.2,18c0.1,1.1,0.2,2.8,1.6,3.1  c2.8,0.9,5.8,0.8,8.6,1.2c1.3,0,3,0.7,4.1-0.3c1.1-1.7,0.8-4,1.8-5.7c0.6,1.1,1.1,2.3,1.7,3.4c0.9-1,1.5-2.3,2-3.5  c0.5,1.2,0.8,2.6,1.7,3.6c1.8,1.5,5.2,1.3,6.3-1c0.5-2.2-0.5-4.5,0.3-6.7c0.6-1.4,2.7-1.4,3.5-0.2c1.5,2.1,1.2,4.7,1.6,7.1  c0.5,2.2,4,2.7,4.8,0.5c0.3-2.5-0.2-5-0.2-7.5c-0.1-2.6-2.6-3.9-4.4-5.2c-1.1-0.6-2.2-1.8-3.5-1.2c-1.3,0.6-2.5,1.4-3.9,2.1  c1-1.8,2.7-3.6,5-3.3c2.2,0.4,3.9,2,5.9,3c1.6,0.8,2.8,2.3,2.8,4.1c0.1,2.4,0.2,4.9,0.7,7.3c0.5,0.4,1,0.7,1.5,1.1  c1.3-2.2,0.5-4.9,0.5-7.3c-0.3-1.7-0.3-3.7-1.7-4.9c-2.3-2-4.8-3.7-7.3-5.5c-1-0.8-2.2-1.3-3.4-1.7c-3.3,2-6.3,4.4-9.2,6.9  c-0.3-0.2-0.6-0.3-0.9-0.5c2.4-2.5,5.2-4.5,7.1-7.4c-2.6-1.5-5.6-0.5-8.5-0.9c0.9-1.1,2.2-1.7,3.4-2.4c-1.9-0.5-4.6-0.8-5.6,1.3  c-1.2,2.7-0.8,5.9-1.2,8.8c-0.3,0-0.8,0-1.1,0c-0.2-2.2-0.2-4.4-0.7-6.5c-0.5-1.5-2.5-1.2-3.6-0.9c-0.9,0-1.7,0.8-1.6,1.8  c0.1,5.2,0.4,10.4,0.4,15.6c0,1.2,0.1,2.5-0.5,3.6c-0.5-1.5-0.9-3.1-1-4.7c-0.4-5.1-0.8-10.1-1-15.2c-0.1-2.3-1.5-4.4-3.4-5.6  C370,139.5,368.9,139.6,368.4,140.4 M444.5,146.3c0.5,4.8,1,9.7,1.2,14.5c0.1,0.9,0,2.1,0.8,2.8c2.2,0.1,4.3-0.2,6.5-0.5  c0.9-0.1,1.7-0.8,1.7-1.7c0.1-3.1,0.5-6.1,0.3-9.2c-0.1-2.2-1.8-3.9-3.5-5c1.6-1,3.1-2.1,4.2-3.7c-2.8-0.7-5.8-0.7-8.6-0.5  C445.4,143.1,444.2,144.7,444.5,146.3 M345.6,156.8c-3,0.8-6.1,1.4-9,2.5c-1.3,0.6-2.8,1.3-3.5,2.7c3.3-0.2,6.6-0.7,9.9-1.1  c2.2-0.3,4-1.6,6.2-2.1c1.1-0.2,2.2-0.6,3.2-1.1c-0.1-0.5-0.3-1.6-0.4-2.2C349.6,155.4,347.6,156.3,345.6,156.8 M271.5,158.5  c-0.1,2.9,0.7,5.9,0.8,8.8c0,1.8,2,2.8,2.3,4.5c0.7,3.9-1.8,7.5-1.3,11.4c0.6,6,1.4,11.9,2.2,17.9c0.4,1.8,0.8,3.7,2.1,5.1  c0.7-4.1,1-8.3,0.6-12.5c-0.5-7.9-0.3-15.8,0.1-23.6c0.4-2.5,0.6-5.4,2.6-7.2c0.5,2,0,4,0.2,6c0.2,2.1,0.3,4.3,0.1,6.4  c-0.4,9.1-0.9,18.1-1.1,27.2c-0.1,6,0.5,12,0.5,18c0.2,4.2-0.4,8.5,0.1,12.7c0.8,1.4,2.7,0.7,3-0.7c1.9-7.3,1.6-15,2-22.5  c0.1-8.5-0.4-16.9-0.7-25.4c-0.1-3.4-0.5-6.9-0.2-10.3c0.3-4.4,1.9-8.8,1.5-13.3c-0.8-2.2-3.7-1.6-5.6-1.4c-2.2,0.6-3.1-2.2-5.1-2.2  C274.2,157.1,272.4,157.2,271.5,158.5 M302.5,161.4c-1,5.7-2,11.4-1.8,17.2c0.1,3.5,0.3,7,0.5,10.5c0.1,1.8,0.5,3.6,1.5,5.1  c0.7-1.4,1.4-2.8,1.5-4.4c0-8,0.8-15.9,1.4-23.8c-0.1-1.6,1-2.9,2.4-3.6c0.3-1,0.5-2.1,0.6-3.2c-1.4-0.1-2.7-0.3-4.1-0.2  C303.3,159.2,302.7,160.3,302.5,161.4 M289.5,161.3c-0.6,1.5-0.8,3.1-1.1,4.7c-0.8,4.4-1.8,8.8-1.6,13.3c0.4,6.4,0.9,12.7,0.7,19.1  c-0.3,5.4,0.1,10.7-0.2,16.1c0,2.9-0.1,5.9,0.1,8.8c2.1-1,3-3.2,4-5.2c2.4-4.5,1.7-9.7,1.9-14.6c0.4-6.4-0.9-12.7-0.6-19.1  c0.5-7.1,1.2-14.3,1.9-21.4c0-0.9,0.3-2.1-0.6-2.8C292.7,159.1,290.3,159.6,289.5,161.3 M298.3,159.6c-1,1.3-2.2,2.6-2.5,4.4  c-1.8,9.1-0.9,18.3-0.6,27.5c0.4,6.3,0.3,12.6,1.2,18.8c0.6-0.9,1.2-1.8,1.5-2.9c1.6-6.7,2.1-13.7,1.5-20.6  c-1.1-8.6,0.4-17.3,1.2-25.9c-0.1-0.4-0.2-1.1-0.3-1.5C299.7,159.4,298.8,159.6,298.3,159.6 M353.3,159.9c-1.6,2.1-2.3,4.6-3.3,7  c-0.6,0.8,0.2,1.6,0.5,2.3c2.1-0.7,4.4-1.1,6.1-2.5c1.6-1.5,0.5-3.7-0.2-5.3C355.9,160.3,354.5,158.8,353.3,159.9 M443.1,169.5  c-0.3,0-1-0.1-1.4-0.1c-1.5-1.8-4-1.6-6.2-1.8c-3,0-6,0.1-9,0.6c-2.6,0.5-4.8,3-4.8,5.7c0.4,1.1,1.8,1,2.7,1c5,0,10.1,0,15.1,0  c3.8,0.1,6.8-2.4,9.9-4.2c1.7-1.2,3.9-2.5,4.2-4.7C450,166.5,446.1,167,443.1,169.5 M384.1,169.9c-3.5,0.5-4.9,5-3.6,8  c0.7,1.3,2.4,1.2,3.7,1.1c3.7-0.5,7.4-0.7,11-1.1c1.8-0.2,3.5-1,5-2.1c3-2.2,5.8-4.6,8.4-7.3c-5-1.6-8.8,2.8-13.4,3.7  c0.3-1,0.5-2.2,1.6-2.6c1.4-0.5,2.8-1.3,2.8-3C394.3,167,389.2,168.7,384.1,169.9 M410.8,169.5c-2.8,2-5.5,4-8.1,6.3  c-1.7,1.5-3.5,3-5.8,3.4c-3,0.4-6.1,0.5-9,1.5c-0.2,0.4-0.5,1.3-0.7,1.7c1.5,2.8,4.3,4.5,7.3,5.4c6.7-1.9,11.8-7.1,15.4-12.9  c1.2-2.1,4.5-3.7,3.5-6.5C412.5,168.6,411.5,168.9,410.8,169.5 M414.5,174.1c1.8,0.2,3.8-0.1,5-1.6c-0.6-0.5-1.2-0.9-1.8-1.4  C416.5,171.9,415.2,172.7,414.5,174.1 M412.5,177.2c2.3,0.4,5,0.5,6.6-1.6C416.8,174.9,414.1,175.2,412.5,177.2 M409.8,180.8  c2.3,0.1,4.9,0.3,6.6-1.4C414.1,178.4,411.3,178.7,409.8,180.8 M308.4,188.6c-0.2,5.9-0.7,11.9-1.7,17.8c-0.7,3.8-1,7.7-2.4,11.3  c-0.5,1.1-0.4,2.3,0.1,3.4c2.5-0.7,5.8-1.3,6.7-4.1c2.1-5.6,4.1-11.2,6-16.9c0.7-2.2,1.4-4.5,1.4-6.9c-0.2-0.9-1.1-2.6-2.1-1.6  c-1.1,3.4-1.4,7-2.7,10.3c-0.3-1.1-0.5-2.1-0.8-3.2c-1.7,3.8-2.3,8-4.4,11.5c-0.5-2.1,0.8-4,1.1-6.1c1.2-6.5,1-13.1,1.3-19.7  c0.2-1.2-0.8-2.1-1.5-2.9C308.2,183.7,308.6,186.2,308.4,188.6 M405.4,184.9c2.4,0,4.9,0.2,7.3-0.3c1.3-0.2,1.5-1.6,1.9-2.6  C411.3,182.2,407.8,182.5,405.4,184.9 M412.9,189.6c-1.3,1.2-2.3,2.6-3.1,4.1c1.2,1.9,3.8,3.4,6,2.2c3.2-2.6,4.8-6.7,5.2-10.7  c-0.4-0.8-0.8-1.5-1.2-2.3C417.2,184.8,415.2,187.4,412.9,189.6 M382.1,185.3c-2.3,2.9-2.5,7.5-6.1,9.4c-4,1.5-8.3,2.1-12.4,3.4  c-0.9,0.2-1.9,0.9-1.9,1.9c-0.2,3.7-0.4,7.4,0.1,11.1c1.6,12.3,4.2,24.5,5,36.9c0.4,6.2,1.2,12.5-0.1,18.7c-1.1,5-2.4,9.9-4.6,14.5  c-0.4-3,0.6-5.9,0.9-8.8c1.1-8.3,3.7-16.8,1.7-25.3c-1.2-4.8-1.2-9.8-1.9-14.7c-1.4-9.8-3.3-19.5-3.8-29.4c0-1.2-0.5-2.3-1-3.3  c-1,0.9-2.1,1.8-2,3.2c0.2,6.8,1.5,13.5,2.3,20.3c1.5,11.1,2.4,22.8-1.2,33.6c-1.5,4.1-2.8,8.2-4.3,12.3c-1.3,3.6-2.9,7.3-5.9,9.7  c-1.4,1.1-3.5,0.9-4.8-0.3c-3.4-2.8-3.4-7.8-6.5-10.8c-1-1-2.8-1-3.4-2.4c2.6,0.9,5.1,2.1,7,4c2,1.9,1.7,5.2,3.9,6.9  c1.5-0.7,3.1-1.6,3.8-3.2c4.5-9,9.5-18.2,10.2-28.5c0.8-13.4-1.5-26.6-2.9-39.8c-0.5-2.2,0-5.1-2.3-6.4c-0.8,0.8-2.1,1.6-2,2.9  c-0.2,4.2,0.3,8.5,0,12.7c0,7.8-1.3,15.4-3.2,23c-0.5,0.2-1,0.5-1.5,0.7c-0.7-2.7,0.7-5.4,0.2-8.1c-1.1-7.3-2.4-14.5-3.9-21.7  c-0.2-1.7-1.7-3.5-0.6-5.2c2.7,4.4,3.7,9.6,5.7,14.3c0.3-0.8,0.6-1.7,0.6-2.6c0.3-5.1,0.5-10.1,0.7-15.2c-1.4-2.7-4.9-3.4-7.6-2.5  c-6,1.8-12.7,3.6-16.5,9.1c-3.7,5.6-4.3,12.6-4.4,19.2c0.3,7-1.3,13.9-2.2,20.8c0,0.8-0.3,2,0.5,2.5c2.2,1.3,4.7,2.3,7.1,3.3  c1.3,0.5,2.8,1.2,4.2,0.4c1.1-0.7,1.6-2.1,1.6-3.4c0.4-10-1.7-19.9-4.2-29.5c-2.7,3.3-2.6,7.6-4.1,11.4c-1.4-3.6-0.2-7.4,0.9-10.9  c1.5-3.8,3.2-7.8,6.6-10.3c0.3,4.4-0.5,8.7,0.1,13.1c1.1,7.5,2.8,14.8,4.5,22.1c0.6,2.7,0.8,5.7-0.9,8.1c-1.5,1.9-3.5,3.5-4.8,5.6  c-1.5,2.1-1.5,4.9-3.6,6.7c-0.2-0.5-0.5-1.4-0.7-1.8c0.6-2,1.4-3.8,1.8-5.8c0.2-1.8-1.2-3.2-2.7-3.9c-2.3-1-4.6-2.6-7.2-2.6  c-0.4,1.9,0.5,3.6,1.1,5.4c0.5,1.8-1,3.2-1.7,4.7c-0.9,1.3-1.4,3.1-3.1,3.7c-0.1-3.4,3.3-6.1,2.1-9.5c-0.7-1.9-1.1-4.6-3.4-5  c-1.1,2.3,1.1,4.4,0.9,6.7c0,3.2-1.6,7-5.1,7.7c2.2-3.4,3.6-8.1,1-11.7c-2.2-2.1-6.1-2.4-8.6-0.6c-1.4,0.7-2.9,2.5-4.6,1.6  c-2-2.1-2.5-5.3-5.1-7c-1.2-1-2.9-0.6-4.3-0.5c-0.6,3,1.1,5.8,1.2,8.7c0.1,2.1,0.3,4.2,1.7,5.9c2.2,3.2,6,6.6,4.5,10.9  c-1.4-1.5-1.6-3.6-2.6-5.3c-1.5-2.7-4-4.6-5.5-7.3c-0.8-1.5-0.7-3.2-0.9-4.8c-0.2-2.1-1.3-4-2.5-5.7c-0.8,0.7-1.6,1.5-1.7,2.6  c-0.2,4.2-0.2,8.5,0.8,12.7c1,4.4,2.6,8.6,4,12.9c0.9,2.8,3.2,5.2,6.1,6c6.6,2,13.5,3.5,20.4,3.4c7.5,0.2,15.2,2.8,20.2,8.5  c1.5,1.7,3.1,4.1,5.7,3.7c3.7-0.4,7.6,0.5,11.2-0.7c3.2-1.1,4.7-4.6,7.7-6c3.9-1.8,8.2-2,12.2-3.5c4.7-1.8,6.8-7.4,11.6-8.9  c5.2-0.8,10.7,1.6,15.9-0.5c2.7-0.9,3.8-4.3,6.6-4.8c3.3-0.5,6.6,0.9,9.9,1.1c1.4,0.2,3.2,0,3.8-1.5c1-2.6,0.8-5.4,1.3-8.1  c0.4-3.6,1.7-7.1,2.1-10.7c0.5-4,0.2-8.1,0.5-12.2c0-10.6-0.4-21.3-2.3-31.8c-0.6-4.2-1.2-8.8-4.4-11.9c-2.4-2.1-5.3-3.6-8.2-5  c-6.7-3-13.6-5.6-20.4-8.5C383.9,185.4,383,184.7,382.1,185.3 M405.5,187.3c-1.6,0.6-3.6,0.7-4.8,2.2c1.6,1.4,3.6,2.7,5.8,2.6  c2.3-0.3,3.8-2.3,4.6-4.3c0.4-0.7-0.5-1.6-1.2-1.5C408.5,186.2,407,186.9,405.5,187.3 M312.7,195.1c1.1-1.6,1.7-3.5,1.9-5.5  c0.3-0.9-0.5-1.5-0.9-2.1C312.4,189.8,312.6,192.6,312.7,195.1 M272.7,257.8c0,3.8,1.8,7.5,1,11.2c1.1,3.5,3.4,6.5,5.7,9.3  c0.6,0.8,1.7,0.8,2.6,1.1c0.4-1,1.3-1.9,0.9-3c-1.5-5-3.2-9.9-4.6-15c-0.8-2.7-1.4-5.6-2.7-8.1C273.9,254.3,272.9,256,272.7,257.8   M415.1,277.7c-4.1,1.1-8.3-1.1-12.4,0c-2.5,0.6-4.2,2.9-6.7,3.5c-4.1,1-8.6-0.1-12.6,1.5c-2,0.8-3.3,2.6-3.5,4.7  c1.4,0.3,2.9,0.4,4.3,0.3c6.9-0.4,13.7-0.8,20.6-1.3c2.9-0.2,5.8-0.7,8.8-0.4c2.8,0,5.9-0.1,8.3-1.8c1-0.7,1.6-1.9,1.2-3.1  c-0.7-1.6-2-2.8-3.3-3.8C418.3,276.2,416.6,277.4,415.1,277.7 M290.8,286.9c-0.9,1.6-0.6,4.6,1.6,4.9c5.7,0.7,11.5,0,17.3,0  c3.4-0.3,6.9,0.3,10.1-1c-0.4-0.4-0.9-0.7-1.4-1.1c-7.8-2.6-16.2-1.1-24.2-3.1C293.2,286.4,291.6,285.8,290.8,286.9 M456.7,68.5  c2.4,2.8,4.7,5.6,7.3,8.3c-0.6,0.5-1.1,0.9-1.7,1.4c-1.6-2.2-3.6-4.2-5.4-6.3c-0.7,0.6-1.3,1.2-2,1.8c1.3,1.4,2.4,3.1,4.1,4.1  c-0.6,0.5-1.3,1.1-1.9,1.7c-1.1-1.6-2.4-3.1-3.7-4.5c-0.8,0.7-1.6,1.4-2.5,2.1c1.9,2.1,3.6,4.4,5.8,6.2c-0.6,0.6-1.2,1.1-1.9,1.7  c-1.9-3.2-4.8-5.8-7.3-8.7C451,74.1,454,71.3,456.7,68.5 M247.1,71.7c0.8-0.9,1.6-1.7,2.5-2.6c0.7,1,1.9,1.2,3,1.6  c3,0.8,6,1.9,9.1,2.5c-1.1,1-2.1,2-3.1,3.1c0.1-0.3,0.2-0.8,0.2-1c-0.8-0.3-1.7-0.5-2.5-0.8c-1.2,1.3-2.4,2.6-3.6,4  c0.5,0.9,0.9,2,1.9,2.5c-0.8,0.8-1.6,1.6-2.3,2.4c-0.8-2.9-2.1-5.6-3.2-8.5C248.6,73.7,248.3,72.3,247.1,71.7 M250.3,72.5  c0.6,1.4,1.2,2.8,1.8,4.2c0.9-0.9,1.7-1.9,2.6-2.8C253.3,73.4,251.8,73,250.3,72.5 M238.8,81.1c1.3-1.9,3.5-2.7,5.3-3.9  c0.3,0.8,0.6,1.6,1,2.5c-4-0.3-7.7,5.5-4.1,8.4c3.7,3,8.4-2.2,7.2-6.1c0.8,0.1,1.7,0.1,2.5,0.2c-0.6,2.9-1.3,5.9-3.7,7.8  c-2.5,2.5-7.1,1.8-8.9-1.2C236.4,86.4,237.1,83.2,238.8,81.1 M335.8,83.3c0.4-0.6,0.8-1.2,1.2-1.8c1.1,2.4,2,4.9,3.2,7.4  c-0.5-0.1-1.5-0.3-2.1-0.4C337.1,86.9,336.5,85.1,335.8,83.3 M462.8,83.4c1.5-0.9,3.6,0.7,3,2.3c-0.3,2-3.7,2-4,0  C461.6,84.8,462,83.9,462.8,83.4 M364.8,89.1c1.4-0.7,2.9-1.4,4.4-2c-0.4,0.9-0.4,2.1-1.3,2.7C366.9,89.9,365.8,89.4,364.8,89.1   M471.5,87c1.5,2.8,3.5,5.3,4.8,8.2c1,2.4-1.7,4.6-4,3.7c0.1,2.8-3.6,4.5-5.6,2.4c-2.1-2.4-3.4-5.4-5.3-8.1c2.1-0.6,3.8-2,5.6-3.1  C468.7,89.2,470.4,88.4,471.5,87 M469.1,91.9c1.1,1.8,2.1,3.6,3.5,5.1c0.6-0.4,1.3-0.8,1.9-1.2c-0.8-1.9-1.9-3.6-3-5.4  C470.7,91,469.9,91.4,469.1,91.9 M464.7,94.7c1,1.5,1.8,3.2,3,4.6c0.9,1.1,3.1,0,2.7-1.4c-0.7-1.8-1.8-3.3-2.8-4.9  C466.6,93.5,465.6,94.1,464.7,94.7 M338.6,97c3.4-2,6.3-5.3,8.1-8.9c0.5,0.9,1.5,2,0.8,3.1c-1.9,2.8-4.9,4.8-6.4,8  c-0.4,2.2,0.1,4.5-0.9,6.6c-1.4,0.5-3.3,1-4.4-0.2c1-1.3,3.5-2.4,2.7-4.5c-1.3-2.9-4.6-4.4-6.3-7.1c-0.7-1.1-0.4-2.5-0.3-3.8  C334.3,92.2,335.7,95.6,338.6,97 M235.4,92.7c1.3-0.7,3.2,0.2,3.1,1.7c0.1,1.6-2,2.7-3.2,1.7C234,95.4,234.1,93.3,235.4,92.7   M388.8,97.4c0.3-0.1,0.8-0.3,1-0.4c0.5,0.6,0.9,1.3,1.4,1.9c-0.7,0.2-1.4,0.5-2.1,0.7C389.1,98.8,388.9,98.1,388.8,97.4 M225,105.3  c-0.2-3.4,2.4-5.8,4.6-8c0.5,0.7,1,1.5,1.6,2.2c-2.1,0.6-3.8,2.5-4.2,4.6c-0.2,0.7,0.3,2.1,1.2,1.7c2-1.5,2.5-4.5,4.9-5.5  c1.9-0.9,4.2,0.6,4.5,2.6c0.3,3.6-2.3,6.4-4.8,8.7c-0.6-0.7-1.2-1.5-1.8-2.2c2.1-0.4,3.7-2.2,4.3-4.2c0.4-0.9,0.1-2-0.7-2.6  c-2.5,1-2.7,4.5-5.3,5.6C227.4,109.1,225,107.5,225,105.3 M479.2,99.7c1.7,3.3,2.9,7,5.2,10c-0.8,0.4-1.5,0.8-2.3,1.2  c-0.7-2.8-2.3-5.2-3.4-7.7c-0.8,0.4-1.7,0.8-2.5,1.2c0.8,1.7,1.6,3.6,2.9,5.1c-0.8,0.4-1.5,0.7-2.3,1.1c-0.5-1.9-1.5-3.6-2.3-5.4  c-1,0.4-1.9,0.9-2.9,1.4c1.4,2.5,2.2,5.4,4.1,7.6c-0.8,0.4-1.6,0.7-2.3,1.1c-1.1-3.7-3.2-7-4.8-10.4c1.8-0.2,3.3-1.2,4.9-1.9  C475.4,101.8,477.5,101.1,479.2,99.7 M221.2,112.5c0.5-1.1,1-2.2,1.4-3.4c1.3,1.7,3.6,2,5.5,3c1.8,0.6,3.5,2,5.5,1.7  c-0.5,1.1-1,2.2-1.4,3.4c-1.2-1.5-3.2-1.8-4.9-2.7C225.2,113.8,223.4,112.4,221.2,112.5 M484.8,113.1c0.1-0.2,0.4-0.7,0.5-1  c0.4,1.2,0.9,2.4,1.3,3.6c-1.3,0.3-1.6,1.7-2.2,2.7c-1,2.1-2,4.1-3.1,6.1c2.5-1,5.1-1.5,7.3-3c0.3,0.9,0.6,1.8,1,2.7  c-2.9,0.8-5.7,1.9-8.5,2.9c-1,0.3-1.8,0.8-2.6,1.4c-0.3-1-0.7-2-1-3c0.6-0.3,1.2-0.8,1.5-1.5c1.3-2.6,2.5-5.1,3.8-7.7  c-2.5,1-5.2,1.7-7.6,3c-0.3-0.9-0.6-1.8-0.9-2.6C477.9,115.8,481.2,114.2,484.8,113.1 M219.9,115.5c1.4,1.4,3.5,1.6,5.2,2.2  c2,0.5,3.9,1.7,6.1,1.3c-0.5,1.2-0.9,2.4-1.3,3.6c-0.2-0.2-0.5-0.7-0.6-0.9c-2.3-0.7-4.6-1.5-6.9-2.2c2.1,2.2,4.2,4.6,6.4,6.8  c-3.1,0.5-6.2,1.1-9.2,1.6c2.7,0.7,5.2,2.1,8,2.1c-0.4,1-0.7,2-1,2.9c-1.7-1.2-3.8-1.6-5.7-2.3c-1.8-0.6-3.6-1.4-5.5-1.4  c0.5-1.2,0.9-2.5,1.3-3.8c2.6,0.6,5.2-0.6,7.8-0.8c-1.9-1.8-3.3-4.5-5.8-5.3C219.1,118.2,219.5,116.9,219.9,115.5 M387.5,116.3  c1.6-0.1,3.1-0.3,4.7-0.1c0.8,0.1,0.9,1.1,1.1,1.7c0.2,1.4,0.4,2.8,0.2,4.1c-0.9,1-2.3,0.8-3.5,1c-0.9,0-2,0.3-2.6-0.5  C386.9,120.5,386.9,118.3,387.5,116.3 M479.9,131.1c3.5-1.1,7.4-1.2,10.7-3.1c0.6,2.9,1.4,5.8,2,8.7c0.2,0.9,0.5,1.6,1.2,2.3  c-0.9,0.2-1.8,0.3-2.7,0.5c-0.4-2.8-1.2-5.4-1.8-8.1c-0.9,0.2-1.8,0.4-2.8,0.6c0.5,1.9,0.7,3.9,1.8,5.6c-1,0.2-2,0.4-3.1,0.6  c0.2-0.2,0.5-0.6,0.6-0.9c-0.4-1.6-0.8-3.3-1.2-4.9c-1,0.2-2,0.5-3,0.7c0.7,2.7,1.1,5.6,2.2,8.2c-0.8,0.2-1.6,0.4-2.5,0.7  c-0.2-3.9-1.7-7.7-2.4-11.5C479.3,130.7,479.7,130.9,479.9,131.1 M214.6,132.4c0.2,0.2,0.6,0.6,0.8,0.8c3.6,0.4,7.1,1.9,10.7,1.5  c-0.2,1.1-0.4,2.2-0.6,3.3c-2.6-1.2-5.5-1.3-8.2-2c2.4,2.1,4.9,4.1,7.4,6.1c-3,0.9-6.1,1.8-9.1,2.7c2.8,0.4,5.5,1.4,8.4,1.2  c-0.2,1-0.4,1.9-0.6,2.9c-3.5-1.2-7.2-1.5-10.9-2.3c-0.2,0.2-0.6,0.5-0.8,0.7c0.3-1.5,0.6-3,0.9-4.5c0.3,0.1,0.8,0.2,1.1,0.3  c2.3-0.7,4.6-1.3,6.9-2c-2.3-1.6-4.1-3.8-6.8-4.8C214.1,135.1,214.3,133.8,214.6,132.4 M334.9,139.1c0.9-2.1,3.5-1.8,5.2-1.1  c1.9,0.9,2.3,3.3,2,5.2c-1.6-1.1-3-4-5.3-2.8c-2.6,2-2.8,5.7-4.6,8.3C330.9,145.3,333.2,142,334.9,139.1 M487.4,143.2  c2.2-0.3,4.4-0.4,6.4-1.2c0.5,3.7,0.6,7.5,1.8,11c-0.9,0.1-1.8,0.2-2.7,0.4c0.6-2.7-0.5-5.5-0.7-8.2c-1,0.1-1.9,0.2-2.9,0.4  c0.3,1.9,0.4,3.8,1.1,5.6c-0.9,0.1-1.8,0.2-2.7,0.4c0.5-1.9-0.1-3.8-0.3-5.7c-1.5,0.2-3,0.4-4.4,0.6c-0.1,0.2-0.4,0.7-0.5,0.9  c-0.1-1.3-0.3-2.5-0.5-3.8C483.8,143.9,485.6,143.4,487.4,143.2 M411.9,146.1c7.3-0.4,14.6,0,21.9-0.9c1.7-0.4,3,1.3,2.8,2.8  c-0.1,1.4,0.2,3.2-0.8,4.4c-1.8,1-4,0.7-6,0.9c-1.3,0.2-3,0-3.8,1.3c-0.7,2.1-0.2,4.4-1.3,6.4c-0.8-2.4-0.7-5-0.3-7.5  c1.2-1.7,3.5-1.5,5.3-1.8c1.3-0.2,3.2,0.1,3.8-1.4c0.2-1.1,0.2-3.1-1.5-3.1c-7.1-0.1-14.3,0.6-21.4,0.4c-0.3-0.2-1-0.5-1.4-0.7  C410.1,146.6,411,146.1,411.9,146.1 M371.1,145.5c2,2.1,1.7,5.1,2,7.8c0.2,1.1-0.5,1.9-1,2.8c-0.6-0.4-1.2-0.7-1.8-1.1  C369.3,151.9,368.5,148.1,371.1,145.5 M211.6,150c3,1.2,6.4,0.3,9.4,1.4c2.2,1,2,3.9,1.9,5.9c-0.2,2.1-0.8,5-3.3,5.3  c-3,0.2-6-0.7-9-0.3c0.1-1,0.2-2.1,0.2-3.1c2.8,0.5,5.8,0.9,8.7,0.7c2.1-1.5,2.3-6.7-1-6.6c-2.4-0.2-4.8-0.6-7.2-0.2  C211.4,152,211.5,151,211.6,150 M448.6,153.1c1.1-0.7,3-0.2,2.9,1.3c0,1.1,0,2.9-1.5,2.9C447.7,157.8,447.4,154.2,448.6,153.1   M491.1,156.1c1.4-0.1,2.9-0.1,4.2-0.7c0.1,1.1,0.1,2.3,0.3,3.4c-3.9-0.4-7.9,0-11.8,0.7c-0.1-1-0.2-2-0.2-3.1  C486,156.6,488.6,156.3,491.1,156.1 M484.6,164.3c1.6-4,7.8-4.4,10.1-0.8c2.2,3.4,0.9,7.5-0.8,10.7c-0.7-0.5-1.4-1-2.1-1.4  c2.4-2.1,2.9-6.6,0.2-8.6c-1.9-1.3-4.8-0.5-5.7,1.7c-0.8,2.3-0.5,5.3,1.7,6.9c-0.7,0.5-1.5,0.9-2.2,1.4  C484.3,171.1,483,167.6,484.6,164.3 M211.9,165.2c0.8,0.4,1.6,0.8,2.4,1.2c-1.7,1.9-2.8,6.4,0.1,7.5c1.6-2.2,0.2-5.4,1.9-7.7  c1.4-1.9,4.8-1.2,5.5,1c1.5,2.9,0.4,6.1-0.5,9c-0.9-0.4-1.8-0.7-2.7-1c2.3-1.7,2.6-5.3,1-7.6c-0.3,0.1-1,0.2-1.4,0.3  c-0.4,2.2-0.1,4.5-1,6.6c-1.1,2.3-4.7,2-5.8-0.2C209.9,171.4,211,168.1,211.9,165.2 M334,170.7c2.1-1,4.8-2.7,6.8-0.7  c-2.3,3.2-6.3,4-10,4.1C331.3,172.4,332.5,171.3,334,170.7 M483.7,175.6c0.2,0.2,0.6,0.6,0.8,0.8c3.4,0.2,6.8,0.5,10.2,0.8  c0.2-0.2,0.5-0.5,0.7-0.6c-0.1,1.3-0.2,2.5-0.3,3.8c-0.2-0.2-0.7-0.5-0.9-0.7c-3.6-0.1-7.2-1-10.8-0.6  C483.5,178,483.6,176.8,483.7,175.6 M345.1,181.5c1.9-1.7,3.9-3.3,6.6-3.5c-0.7,1.3-1.4,2.8-2.8,3.4  C347.6,182.1,346.3,181.6,345.1,181.5 M215.2,179.7c1.1-0.8,3.2-0.2,3.2,1.3c0.4,1.5-1.4,2.9-2.7,2.2  C214.1,182.9,213.9,180.6,215.2,179.7 M483.1,181.8c3.9,0.9,7.8,1.2,11.7,1.6c-0.1,1.1-0.3,2.2-0.4,3.3c-0.2-0.2-0.6-0.6-0.8-0.8  c-3.6-0.2-7.2-1.2-10.9-1C482.9,183.9,483,182.9,483.1,181.8 M218,188.1c1.2-1.9,4.3-1.8,5.5,0.1c1.9,2.6,1.6,6.1,0.9,9.1  c-1-0.2-2-0.4-3-0.7c0.3-0.3,0.9-0.8,1.2-1.1c0.2-1.7,0.6-3.5-0.3-5c-0.4-0.8-1.6-1.7-2.3-0.7c-0.4,2.2,0.6,4.5-0.1,6.6  c-0.9,2.3-4.4,2.5-5.7,0.5c-2-2.5-1.2-5.9-1-8.8c0.9,0.3,1.8,0.5,2.8,0.8c-1.4,1.9-1.5,4.5-0.3,6.5c0.3,0.5,1.7,1,1.8,0  C218,193,216.7,190.3,218,188.1 M483.8,186.7c0.8,0.5,1.6,1,2.4,1.5c-2.1,1.1-3.3,3.6-2.9,5.9c0.3,0.9,0.9,1.8,1.9,1.1  c1.1-1.9,1.1-4.3,2.5-6c1.6-1.7,4.7-0.9,5.3,1.3c1.1,3.2-0.8,6.2-2.3,8.9c-0.7-0.6-1.4-1.1-2.1-1.7c2.1-1.5,4-5.3,1.6-7.2  c-2,1.3-1.6,4.4-3.1,6.2c-1.3,2.2-5,1.5-5.7-0.9C480.4,192.6,482.1,189.4,483.8,186.7 M223.8,198.4c0.9-0.2,1.7-0.5,2.6-0.8  c0.3,3.9,2.1,7.6,3,11.4c-0.2-0.1-0.7-0.4-0.9-0.5c-3.2,1-6.4,1.9-9.7,2.8c-0.2,0.2-0.5,0.7-0.6,1c-1.3-3.6-1.8-7.6-3.6-11  c0.8-0.2,1.7-0.5,2.5-0.8c0.2,2.8,1.3,5.4,2,8.1c0.9-0.3,1.7-0.5,2.6-0.7c-0.6-1.8-0.8-3.9-2-5.4c0.9-0.3,1.8-0.5,2.6-0.8  c0,2,0.7,3.8,1.3,5.6c1-0.3,2-0.6,3-0.9C225.6,203.8,225.3,200.9,223.8,198.4 M390.1,208.9c1.5-3.6,4-7.1,7.7-8.5  c-1.2,4.1-3.3,7.7-5.4,11.4c-4.1,7.1-8.9,13.7-13.6,20.5c-0.8,1.1-1.7,2.2-2.7,3.2c-1.7-2.3-1.2-5.4-1.9-8  c-1.3-5.1-2.6-10.3-4.5-15.3c-0.3-1.1-1.2-1.7-2.2-2.1c-0.8,3-0.8,6.1-0.6,9.2c0.1,3.5,1.9,6.8,1.1,10.3c-0.7-0.6-1.2-1.3-1.4-2.2  c-1-3.4-1.9-6.9-2-10.4c-0.1-3.3,0.3-6.6,0.5-9.9c0-1.3,0.8-2.3,1.4-3.4c0.8,0.6,1.8,0.9,2.4,1.8c3.1,6.5,5.3,13.3,7.7,20  c1.3-1.8,2.6-3.7,3.9-5.5c0.7-0.1,1.3-0.3,1.9-0.6c0.3-1.7-0.1-3.6,0.7-5.1C385.7,212.6,388.9,211.7,390.1,208.9 M484.3,202  c1.3-0.8,3.3,0.4,3,2c0.1,1.4-1.8,2.3-3,1.6C482.9,205,483,202.7,484.3,202 M478.5,209c3.6-0.7,6.7,2.8,10.3,2.4  c-0.5,1.1-0.9,2.2-1.3,3.4c-2.4-1.8-5.4-2.4-8.1-3.4c-1.9,1.1-3.4,3.9-2.1,5.9c2.5,1.4,5.3,2.6,8.1,2.9c-0.4,1-0.8,2.1-1.3,3.2  c-0.1-0.2-0.3-0.7-0.5-0.9c-2.5-1-5-1.8-7.4-2.9c-1.9-0.9-1.9-3.3-1.4-5C475.5,212.4,476.4,210,478.5,209 M410.4,211.1  c0.1-1.5,2.1-1.4,3.1-1c1.7,0.7,1.8,2.9,2.1,4.4c1.6,9.5,2.8,19.1,2.3,28.8c-0.8,6.6-1.5,13.4-3.7,19.7c-1.4,2.3-4.2,0.1-5.2-1.5  c1.5-0.8,3.9-0.8,4.3-2.7c0.6-2.5,1-5.1,0.8-7.7c-2.9,1.7-4.3,5.3-7.6,6.3c2.5-3.7,6.1-6.6,8.5-10.4c1.2-2.2,0.5-4.7-0.6-6.7  c-4.4,4.1-8,8.8-11.9,13.3c-4.6,6.1-10.6,11-15.8,16.5c-1,0.9-1.6,2.6-3.2,2.5c1.1-4.8,5.3-7.9,7.3-12.3c1.4-3.5,1.1-7.3,2.1-10.9  c1.5-6,3.3-12,4.9-18c1.1-4.9,2.3-9.7,3.5-14.6c0.3-1.2,0.6-2.8,2.1-3.1c-0.1,4.3-1.1,8.5-1.9,12.7c-1.2,6.3-2.4,12.5-3.8,18.8  c-0.9,3.9-3.8,7.6-2.7,11.7c2.5-1.7,4.3-4.2,5.9-6.8c3-5.3,3.2-11.4,4.7-17.2C407.2,225.7,408.9,218.4,410.4,211.1 M410.8,225.1  c1.9-1.7,2.9-4.2,2.8-6.7C411.4,219.5,408.1,222.8,410.8,225.1 M408.6,230.3c-1.1,1.5-0.9,3.5-0.8,5.2c1.6-0.7,2.6-2.3,3.5-3.7  c1.4-2.3,3.1-4.8,2.7-7.6C411.9,226,410.2,228.1,408.6,230.3 M407.7,238.2c-1.3,2.3-1.2,5-2,7.5c0.8-0.1,1.6-0.5,2.1-1.2  c2.7-2.8,5.5-5.6,7-9.3c0.9-1.6,0.4-3.5-0.5-5C412,232.7,409.4,235.1,407.7,238.2 M218,214.5c1-0.3,1.9-0.7,2.8-1.1  c0,1.6,0.7,3.1,1.3,4.5c2.9-1.5,6.5-2,9-4.2c0.4,1.2,0.9,2.4,1.3,3.6c-0.3-0.1-0.8-0.3-1-0.4c-2.8,1.1-5.6,2.2-8.3,3.3  c0.6,1.5,0.9,3.1,2.2,4.2c-0.9,0.4-1.7,0.7-2.5,1.1c-0.3-2.5-1.6-4.7-2.4-7.1C219.7,217,219.5,215.2,218,214.5 M336.2,216.6  c1.2-1,3-1.3,4,0.2C338.8,217.1,337.5,217,336.2,216.6 M395.6,222c0.7-1,1.7-1.7,2.9-2.1c-0.5,2.4-2.7,3.7-3.7,5.8  c-3,6.1-4.5,12.8-7,19.1c-1.1,2.7-3.2,4.9-4.8,7.4c-2.5,3.7-4.9,7.4-7.3,11c-1.1,1.6-2,3.4-3.6,4.6c-1.7-5.8-1.6-11.9-2-17.9  c-0.2-3.6-1.7-7-1.8-10.6c2,2,2.9,4.7,4.7,6.8c1,1.2,2.6,1.6,4.1,2c-1.1,3.3-3.4,6.6-2.3,10.3c2.6-2.5,4.5-5.5,6.9-8.1  c1.7-1.9,3.1-4,4.1-6.4C388.7,236.4,390.7,228.4,395.6,222 M469,229c-0.1-3.4,2.4-5.9,4.7-8.1c0.6,0.7,1.2,1.4,1.9,2.2  c-2.9,0.6-5.7,4.3-3.7,7c2.3-1.2,2.8-4.2,4.9-5.6c2-1.3,4.9,0.5,4.8,2.8c0.3,3.4-2.5,5.7-4.5,8c-0.6-0.8-1.1-1.5-1.7-2.3  c2.1-0.6,3.7-2.4,4.1-4.6c0.3-0.9-0.3-1.9-1.3-1.8c-1.8,1.5-2.4,4.1-4.4,5.4C471.8,233.3,468.8,231.4,469,229 M230.1,224.4  c1.5-0.8,3.2-1.4,4.3-2.8c0.5,1,0.9,2,1.4,3c-0.7,0.5-1.1,1.2-1.3,2c-0.8,2.6-1.7,5.2-2.5,7.9c2.3-1.4,5-2.3,7-4.1  c0.4,0.9,0.9,1.8,1.4,2.6c-3.5,1-6.5,3.3-9.9,4.8c-0.1,0.2-0.3,0.7-0.4,0.9c-0.6-1.1-1.1-2.2-1.7-3.2c0.5-0.5,1.1-0.9,1.3-1.7  c0.9-2.6,1.7-5.3,2.6-7.9c-2.1,1.1-4.2,2.2-6.3,3.3c-0.1,0.2-0.3,0.7-0.3,0.9c-0.5-1-1.1-1.9-1.6-2.9  C226.2,226.7,228.1,225.4,230.1,224.4 M465,234.6c0.5-0.9,1.1-1.8,1.6-2.7c3.1,2.4,6.6,4.4,10.1,6c-0.6,0.9-1.1,1.8-1.5,2.7  c-1.5-1.4-3.4-2.3-5.1-3.4C468.4,236.2,466.9,235.1,465,234.6 M240.8,233.8c0.7,1.2,1.5,2.4,2.4,3.5c-1.3,0.1-1.8,1.4-2.3,2.4  c1,1.4,2,2.8,2.9,4.2c1.1-0.2,2.5-0.2,2.9-1.4c0.7,1.1,1.4,2.2,2.1,3.2c-3,0-5.9,0.6-8.9,1c-1.3,0.2-2.8,0.2-3.7,1.4  c-0.7-1.1-1.5-2.2-2.2-3.2c1.5-0.1,1.9-1.8,2.6-2.9C238.1,239.2,239.9,236.7,240.8,233.8 M240.1,241.1c-0.7,1.2-1.5,2.4-2.2,3.6  c1.4-0.2,2.8-0.4,4.2-0.6C241.4,243.1,240.7,242.1,240.1,241.1 M466.7,240.6c1.5-0.8,3.4,0.6,3,2.3c-0.2,1.6-2.4,2.2-3.5,1.1  C465.3,243,465.6,241.2,466.7,240.6 M342.1,243.1c2.1-0.2,4.2-0.2,6.3,0C346.8,244.8,344,244,342.1,243.1 M454.1,250.9  c0.7-3.2,3.6-5.1,6.3-6.7c0.4,0.8,0.9,1.7,1.3,2.5c-2.9,0.1-6.1,2.9-5.1,6c2.6-0.5,3.6-3.4,5.9-4.4c1.5-0.8,3.3,0.3,4.1,1.7  c0.8,1.7,0,3.6-1,4.9c-1.2,1.7-3.3,2.6-4.8,4c-0.4-0.9-0.8-1.7-1.2-2.5c2.3-0.4,4.4-2,5.2-4.3c-0.2-0.5-0.6-1.4-0.8-1.8  c-2.1,1.5-3.5,3.9-6,4.8C455.7,255.8,453.3,253.2,454.1,250.9 M342.3,246.4c2.4,0.4,5.2-0.2,7.2,1.3c-2.4,0-4.8-0.3-7.2-0.4  C342.3,247.1,342.3,246.6,342.3,246.4 M409.6,248.6c0.9-1,1.7-2.2,3-2.6c-1.3,3.9-4.8,6.6-8.2,8.6  C406.1,252.5,407.9,250.6,409.6,248.6 M244,251.5c0.6-0.5,1.3-1.1,1.9-1.6c0.8,1.7,2.1,3,3.2,4.4c1.4-1.1,2.9-2.1,3.9-3.6  c0.7,1.1,2.1,1.9,2.2,3.3l-0.6-0.8c-2.9,2.5-6,4.7-8.7,7.4c-2.3-2.7-4.2-5.8-6.9-8c0.6-0.5,1.2-1,1.8-1.6c1.4,2.2,3.2,4.2,4.9,6.2  c0.7-0.6,1.4-1.2,2.1-1.8C246.6,254.1,245.5,252.7,244,251.5 M340.6,252.4c2.6-1.8,5.9-1.8,8.8-0.6  C346.5,252.1,343.5,252.3,340.6,252.4 M256.6,254.9c0.7,0.8,1.4,1.5,2.1,2.2c-0.7,3.4-0.6,6.9-0.9,10.4c1.8-2,3.9-3.7,5.5-5.9  c0.7,0.8,1.5,1.5,2.3,2.2c-1.7,1.1-3.1,2.7-4.5,4.2c-1.3,1.3-2.8,2.5-3.6,4.2c-0.7-0.8-1.5-1.6-2.3-2.4c0.7-3.3,0.6-6.7,0.9-10  c-1.8,1.8-3.7,3.6-5.4,5.6c-0.7-0.7-1.4-1.3-2.1-2C251.2,260.7,254.3,258.1,256.6,254.9 M447.3,257.4c1.3-1.3,3.2-2.9,5.2-2  c2.9,1.6,4.5,4.6,7.3,6.2c-0.7,0.7-1.5,1.3-2.2,2c-2.2-2-4.1-4.6-6.7-6c-2.3,0.3-5.1,3.5-2.8,5.4c1.7,1.7,3.4,3.5,5.4,4.9  c-0.7,0.7-1.4,1.5-2.1,2.3c-1.7-2.7-4.7-4.3-6.4-7C443.9,261.1,445.8,258.9,447.3,257.4 M337.8,255.9c4-0.1,7.9-1.1,11.9-0.4  C346.2,258,341.7,256.8,337.8,255.9 M334.4,259.8c4.7,0,9.5-1.2,14.2-0.2c-4.6,1.6-9.5,0.4-14.2,1.1  C334.4,260.5,334.4,260,334.4,259.8 M337.7,263.1c3-0.2,6,0.1,9,0.3C343.8,264.8,340.4,264.7,337.7,263.1 M395.2,269  c1.6-2.1,3.5-4,5.5-5.8C400.7,266.1,397.8,268.4,395.2,269 M439.2,265.2c0.8-0.6,1.5-1.3,2.3-1.9c2,3.5,4.9,6.3,7.4,9.3  c-0.8,0.6-1.6,1.3-2.4,1.9c-3.2-1.4-6.8-1.2-10.1-1.9c1.8,1.9,3.1,4.5,5.4,5.9c-0.8,0.6-1.6,1.3-2.3,2c-2.3-3.2-4.8-6.4-7.7-9.2  c0.7-0.6,1.5-1.2,2.2-1.8c3.4,1.2,7,1.1,10.5,1.9C442.8,269.3,441.2,267.1,439.2,265.2 M267.4,265.3c0.8,0.7,1.6,1.4,2.4,2  c-2.8,2.8-5.3,5.9-7.7,9c-0.8-0.7-1.5-1.3-2.3-1.9C262.6,271.7,265.2,268.6,267.4,265.3 M341.7,267.7c1.1-1.5,3.2-1.8,4.6-0.6  C344.8,267.6,343.3,267.7,341.7,267.7 M356.7,272.5c0.8-1.4,1.8-2.7,3-3.8c-0.2,2.6-1.7,4.8-2.6,7.1c-1.7,3.7-3,7.5-5.3,10.9  c-1.9,2.8-5.3,3.9-8.5,4c-2.7,0.2-5.5-0.9-7.3-3c-2.6-3-4.6-6.5-7.5-9.3c-1.7-1.3-4-1.6-5.7-3c-1.4-1.1-2.6-2.7-4.4-3  c-2.4-0.4-4.5,1.1-6.5,2.2c-3.6,2.1-7.8,3-11.9,3.5c-1.5,0.1-3,0.4-4.4-0.2c-0.6-0.3-1.6-0.4-1.4-1.3c2-0.8,4.2,0,6.3-0.4  c4.6-0.9,9.1-2.5,13.2-4.9c2.1-1.1,4.5-0.6,6.6,0.3c3.7,1.6,7.4,3.3,11,5.2c1.3,0.6,2,1.9,2.6,3.2c1.1,2.3,2.8,4.1,4.3,6  c0.8,1,1.8,2.3,3.3,2.3c2.8,0,6-0.4,7.8-2.8C352.2,281.3,354.3,276.8,356.7,272.5 M369,281.2c0.2-3.6,3.4-7.2,7.2-6.5  C374,277,371.5,279.2,369,281.2 M424.6,276.4c0.9-0.6,1.9-1.2,2.8-1.8c1,3.1,3.4,5.5,5.1,8.3c1.3-0.8,2.6-1.6,3.5-2.9  c0.5,0.8,1,1.5,1.5,2.3c-2.2,0.8-3.9,2.3-5.9,3.5c-1.3,0.9-2.9,1.7-3.8,3.1c-0.5-0.8-1-1.5-1.6-2.3c1.5-0.4,2.8-1.3,4-2.3  C428.3,281.7,426.9,278.7,424.6,276.4 M312.4,279c1-0.8,2.1-1.9,3.6-1.7c2.9,0.6,5.5,2,8.2,3c1,0.3,1.8,1.1,2.4,1.9  C321.6,282.8,317.3,279.4,312.4,279 M273.6,311.2c2.4-3.8,7-5.7,11.4-5.8c4.1-0.1,8.7,0.6,11.6,3.8c1.1,1.1,1.6,2.7,2.1,4.2  c-1.7,0-3.4,0-5.1,0c-0.6-1.3-1.2-2.7-2.5-3.3c-3.2-1.8-7.6-1.8-10.6,0.3c-4.1,3.1-4.3,9.9-0.8,13.4c2.9,2.7,7.4,2.8,10.9,1.4  c2.2-0.8,3.3-3.1,3.6-5.3c-2.6,0-5.3,0-7.9,0c0-1.1,0-2.1,0-3.2h12.6v12.3c-1.1,0-2.3,0-3.4,0c-0.2-0.9-0.5-1.7-0.7-2.6  c-2,1.6-4.3,2.8-6.8,3c-4.8,0.5-10.2-0.7-13.4-4.5C271.2,321.2,270.9,315.4,273.6,311.2 M312,305.9c1.8,0,3.7,0,5.5,0  c3.8,7.7,7.6,15.4,11.3,23.1h-5.7c-0.9-2-1.8-4-2.7-6.1h-11.6c-0.9,2-1.8,4-2.7,6.1h-5.5C304.5,321.4,308.2,313.6,312,305.9   M314.7,310.1c-1.4,3.3-2.9,6.5-4.4,9.7c2.9,0,5.8,0,8.7,0C317.6,316.6,316.2,313.3,314.7,310.1 M331.2,310c1.3-2.6,4.2-3.8,6.8-4.2  c3.9-0.6,8.2-0.5,11.6,1.6c2,1.1,3,3.3,3.4,5.5c-1.8,0-3.5,0-5.2,0c-0.5-1.3-1.1-2.9-2.6-3.3c-2.8-1-6.5-1.2-8.8,1  c-0.8,1.3,0,3,1.4,3.5c3.8,1.4,7.9,1.5,11.7,2.8c2.3,0.9,4.4,3,4.2,5.7c0.1,2.6-2,4.7-4.3,5.7c-3.4,1.5-7.2,1.6-10.9,1.1  c-2.8-0.4-5.8-1.5-7.5-3.8c-1-1.2-1.1-2.8-1.4-4.2c1.7,0,3.5,0,5.2,0c0.3,1.5,0.9,3.1,2.5,3.8c2.9,1.4,6.7,1.6,9.6,0  c1.7-0.9,2.1-3.8,0.1-4.6c-4.2-1.8-9.1-1.5-13.2-3.5C331.3,315.8,330,312.5,331.2,310 M357.9,305.9c1.8,0,3.6,0,5.3,0  c0,6.5,0,13,0,19.5c5,0,9.9,0,14.9,0v3.6h-20.2V305.9 M381.5,306c1.7,0,3.5,0,5.2,0v23.1h-5.2V306 M392.6,306c1.8,0,3.7,0,5.5,0  c4.4,5.6,8.9,11.2,13.3,16.9c0-5.6,0-11.2,0-16.9c1.6,0,3.3,0,4.9,0c0,7.7,0,15.4,0,23.1h-5.5c-4.4-5.6-8.9-11.2-13.3-16.8  c0,5.6,0,11.2,0,16.8h-5C392.6,321.4,392.6,313.7,392.6,306 M422.3,305.9c1.8,0,3.6,0,5.3,0v23.1h-5.3V305.9z"/>
<path fill="#1D1D1B" d="M581.3,554.7h-9.8v1.1c2.6,0.2,2.9,0.4,2.9,3.3v13.3c0,2.9-0.3,3.1-2.9,3.3v1.1h9.8v-1.1  c-2.6-0.2-2.9-0.5-2.9-3.3v-13.3c0-2.9,0.3-3.1,2.9-3.3V554.7z M563.3,526.7c1-2.6,1.9-5.2,2.9-7.8h0.1l2.7,7.8H563.3z M561.4,532.3  c0.4-1.4,0.9-2.7,1.3-3.9h6.8c0.6,1.6,1.2,3.2,1.6,4.4c0.5,1.4,0.3,1.8-1.8,2.1v1.1h9.2v-1.1c-2.2-0.3-2.6-0.6-3.8-3.6  c-2.2-5.9-4.4-12-6.5-17.9l-1.5,0.4l-7,17.6c-1.2,2.9-1.6,3.2-3.8,3.5v1.1h7.5v-1.1C561,534.5,560.8,534.1,561.4,532.3 M546.6,575.8  v1.1h10.2v-1.1c-3-0.2-3.3-0.4-3.3-3.5v-5.7h3.1c3,0,3.3,0.3,3.7,2.7h1.1v-6.7h-1.1c-0.4,2.2-0.7,2.5-3.7,2.5h-3.1v-7.7  c0-1.1,0.1-1.2,1.3-1.2h2c2.2,0,3,0.2,3.7,1.1c0.5,0.7,0.9,1.5,1.2,2.9l1.1-0.2c-0.2-1.9-0.3-4.3-0.4-5.1h-15.7v1.1  c2.5,0.2,2.8,0.4,2.8,3.4v13C549.4,575.3,549.1,575.5,546.6,575.8 M537.4,554.7h-9.8v1.1c2.6,0.2,2.9,0.4,2.9,3.3v13.3  c0,2.9-0.3,3.1-2.9,3.3v1.1h9.8v-1.1c-2.6-0.2-2.9-0.5-2.9-3.3v-13.3c0-2.9,0.3-3.1,2.9-3.3V554.7z M526,490.6v-13.3  c0-2.9,0.3-3.1,2.9-3.3v-1.1h-9.8v1.1c2.6,0.2,2.9,0.4,2.9,3.3v13.3c0,2.9-0.3,3.1-2.9,3.3v1.1h9.8V494  C526.3,493.7,526,493.5,526,490.6 M499.7,553.8c-0.1,1.8-0.3,4.2-0.4,6.5h1.2c0.4-1.6,0.8-2.7,1.3-3.3c0.5-0.6,1.1-1,3.9-1h1.5v16.3  c0,2.8-0.3,3.1-3.3,3.3v1.1h10.6v-1.1c-3.1-0.2-3.4-0.5-3.4-3.3v-16.3h1.8c2.2,0,3,0.2,3.6,0.9c0.5,0.6,0.9,1.6,1.3,3.3l1.1-0.1  c-0.2-2.1-0.3-4.9-0.3-6.4h-0.8c-0.6,0.6-1,0.9-1.9,0.9h-13.6c-1,0-1.4-0.1-1.9-0.9H499.7z M506,513.8h-9.7v1.1  c2.6,0.2,2.9,0.4,2.9,3.6v8.2c0,4,1,6.5,2.9,8c1.6,1.2,3.7,1.7,5.8,1.7c2.4,0,4.7-0.8,6.2-2.5c1.9-2,2.5-4.9,2.5-8.7v-3.4  c0-2.7,0.1-4,0.2-5c0.2-1.3,1-1.9,2.9-2v-1.1h-8.4v1.1c2.4,0.1,3.1,0.7,3.3,1.9c0.1,1.1,0.3,2.4,0.3,5.1v3.2c0,5.7-1.7,9.1-6.1,9.1  c-3.9,0-5.8-3-5.8-8.3v-7.5c0-3.2,0.3-3.4,2.9-3.6V513.8z M473,554.7h-5.9v1.1c1.5,0.1,2.2,0.4,2.9,1.3c0.6,0.8,0.7,1.3,0.7,3.6v7.3  c0,3-0.2,4.6-0.3,5.7c-0.2,1.5-1,2-2.9,2.2v1.1h8.2v-1.1c-2.5-0.1-3.1-0.7-3.3-2.3c-0.1-1-0.2-2.6-0.2-5.6v-8h0.1l14.3,17.3h1.4  v-13.6c0-3.1,0.1-4.7,0.3-5.7c0.2-1.5,0.9-2,2.8-2.1v-1.1H483v1.1c2.5,0.1,3.2,0.7,3.4,2.1c0.1,1,0.2,2.6,0.2,5.7v6.8h-0.1  L473,554.7z M471.8,524.5c0-5.1,2.8-9.8,8-9.8c3,0,5.4,1.3,6.4,5.2l1.2-0.2c-0.2-2-0.5-3.5-0.8-5.4c-0.9-0.2-3.4-0.9-6.1-0.9  c-8,0-13.4,4.8-13.4,11.9c0,5.4,3.8,11.3,12.6,11.3c2.4,0,5.4-0.7,6.3-0.9c0.6-1.2,1.4-3.7,1.9-5.4l-1.1-0.4  c-1.7,3.4-3.7,5.2-6.8,5.2C475.3,535,471.8,530.8,471.8,524.5 M432.7,554.7h-9.8v1.1c2.6,0.2,2.9,0.4,2.9,3.3v13.3  c0,2.9-0.3,3.1-2.9,3.3v1.1h9.8v-1.1c-2.6-0.2-2.9-0.5-2.9-3.3v-13.3c0-2.9,0.3-3.1,2.9-3.3V554.7z M447,485.8h-5.7  c1-2.6,1.9-5.2,2.9-7.8h0.1L447,485.8z M449.2,491.8c0.5,1.4,0.3,1.8-1.8,2.1v1.1h9.2V494c-2.2-0.3-2.6-0.7-3.7-3.7  c-2.2-5.9-4.4-12-6.5-17.9l-1.5,0.4l-7,17.6c-1.2,2.9-1.6,3.2-3.8,3.5v1.1h7.5V494c-2.5-0.3-2.7-0.7-2.1-2.6  c0.4-1.4,0.9-2.7,1.3-3.9h6.8C448.2,489.1,448.8,490.7,449.2,491.8 M444,535.9c0.3-1,1-4.2,1.2-5.6l-1.1-0.2  c-0.6,1.4-1.2,2.6-1.8,3.3c-0.8,0.9-1.9,1.1-4,1.1c-1.4,0-2.6,0-3.2-0.4c-0.6-0.4-0.8-1.2-0.8-2.8v-6.1h2.6c2.9,0,3.3,0.1,3.7,2.6  h1.2v-6.7h-1.2c-0.4,2.3-0.8,2.6-3.7,2.6h-2.6v-7.4c0-1.1,0.1-1.2,1.3-1.2h2c2.1,0,3,0.2,3.6,0.9c0.5,0.7,1,1.6,1.3,2.9l1.2-0.2  c-0.1-2-0.3-4.4-0.3-5h-15.7v1.1c2.5,0.2,2.8,0.3,2.8,3.3v13.3c0,2.9-0.3,3.1-3.3,3.3v1.1H444z M426.9,472.9h-9.8v1.1  c2.6,0.2,2.9,0.4,2.9,3.3v13.3c0,2.9-0.3,3.1-2.9,3.3v1.1h9.8V494c-2.6-0.2-2.9-0.5-2.9-3.3v-13.3c0-2.9,0.3-3.1,2.9-3.3V472.9z   M393.7,566.1c0,5.4,3.8,11.3,12.6,11.3c2.4,0,5.4-0.7,6.3-0.9c0.6-1.2,1.4-3.7,1.9-5.4l-1.1-0.4c-1.7,3.4-3.7,5.2-6.8,5.2  c-4.8,0-8.3-4.2-8.3-10.5c0-5.1,2.8-9.8,8-9.8c3,0,5.4,1.3,6.4,5.2l1.2-0.2c-0.2-2-0.5-3.5-0.7-5.4c-0.9-0.2-3.4-0.9-6.1-0.9  C399.1,554.2,393.7,559,393.7,566.1 M386.1,524.2c0-6.1,3-9.6,6.5-9.6c4.2,0,7.3,4,7.3,10.9c0,6.4-2.9,9.5-6.3,9.5  C389,535.1,386.1,530.3,386.1,524.2 M381.5,525c0,6.5,4.8,11.5,11.3,11.5c6.4,0,11.6-4.5,11.6-11.8c0-6.8-5.1-11.3-11.2-11.3  C385.7,513.3,381.5,519,381.5,525 M371.4,570.2l-1.2,0.3c0.2,1.9,0.7,4.8,1,5.6c0.4,0.2,1,0.4,1.9,0.7c0.9,0.3,2.1,0.5,3.4,0.5  c4.8,0,8-3,8-6.7c0-3.5-2.7-5.3-6-7c-2.9-1.4-4.3-2.6-4.3-4.7c0-1.9,1.3-3.5,3.5-3.5c2.8,0,4,2.5,4.7,4.6l1.1-0.2  c-0.3-2.1-0.5-3.6-0.6-4.8c-0.9-0.3-2.6-0.9-4.6-0.9c-4.7,0-7.5,2.9-7.5,6.4c0,3.5,2.8,5.3,5.8,6.8c2.6,1.3,4.2,2.6,4.2,4.8  c0,2.3-1.4,3.8-3.7,3.8C373.9,576,372,572.3,371.4,570.2 M366.2,490.5v-6.1h2.6c2.9,0,3.3,0.1,3.7,2.6h1.2v-6.7h-1.2  c-0.4,2.4-0.8,2.6-3.7,2.6h-2.6v-7.4c0-1.1,0.1-1.2,1.3-1.2h2c2.1,0,3,0.2,3.6,0.9c0.5,0.6,1,1.6,1.3,2.9l1.2-0.2  c-0.1-2-0.3-4.4-0.3-5h-15.7v1.1c2.5,0.2,2.8,0.3,2.8,3.3v13.3c0,2.9-0.3,3.1-3.3,3.3v1.1h17c0.3-1,1-4.2,1.2-5.6l-1.1-0.2  c-0.6,1.4-1.2,2.6-1.8,3.3c-0.8,0.9-1.9,1.1-4,1.1c-1.4,0-2.6,0-3.2-0.4C366.3,492.9,366.2,492.2,366.2,490.5 M360.1,516.8  c0-0.8,0.1-1.2,0.3-1.4c0.2-0.2,0.8-0.3,1.6-0.3c2.2,0,4.4,1.4,4.4,5c0,1.8-0.5,3.1-1.7,4.1c-0.8,0.6-1.9,0.9-3.5,0.9h-1.1V516.8z   M353.2,534.9v1.1h9.8v-1.1c-2.6-0.2-2.9-0.5-2.9-3.3v-5.1h0.8c1.3,0,1.9,0.4,2.5,1.4c1,1.7,2,3.7,3,5.2c1.4,2.2,2.8,3.1,6.5,3.2  c0.4,0,0.8,0,1.1,0l0.2-1c-0.8-0.2-1.4-0.6-2.2-1.5c-0.7-0.8-1.5-1.8-2.7-3.6c-1-1.5-2.3-3.8-2.9-4.9c2.3-1,4.3-2.7,4.3-5.6  c0-2.1-0.9-3.6-2.3-4.5c-1.4-0.9-3.1-1.2-5.9-1.2h-9.2v1.1c2.6,0.2,2.9,0.5,2.9,3.3v13.3C356.2,534.3,355.8,534.6,353.2,534.9   M330.1,575.8v1.1h17c0.3-1,1-4.2,1.2-5.6l-1.1-0.2c-0.6,1.4-1.2,2.6-1.8,3.3c-0.8,0.9-1.9,1.1-4,1.1c-1.4,0-2.6,0-3.2-0.4  c-0.6-0.4-0.8-1.2-0.8-2.8v-6.1h2.6c2.9,0,3.3,0.1,3.7,2.6h1.2v-6.7h-1.2c-0.4,2.4-0.8,2.6-3.7,2.6h-2.6v-7.4c0-1.1,0.1-1.2,1.3-1.2  h2c2.1,0,3,0.2,3.6,0.9c0.5,0.6,1,1.6,1.3,2.9l1.2-0.2c-0.1-2-0.3-4.4-0.3-5h-15.7v1.1c2.5,0.2,2.8,0.3,2.8,3.3v13.3  C333.4,575.3,333.1,575.5,330.1,575.8 M326.8,534.9v1.1h17c0.3-1,1-4.2,1.2-5.6l-1.1-0.2c-0.6,1.4-1.2,2.6-1.8,3.3  c-0.8,0.9-1.9,1.1-4,1.1c-1.4,0-2.6,0-3.2-0.4c-0.7-0.4-0.8-1.2-0.8-2.8v-6.1h2.6c2.9,0,3.3,0.1,3.7,2.6h1.2v-6.7h-1.2  c-0.4,2.3-0.8,2.6-3.7,2.6H334v-7.4c0-1.1,0.1-1.2,1.3-1.2h2c2.1,0,3,0.2,3.6,0.9c0.5,0.7,1,1.6,1.3,2.9l1.2-0.2  c-0.1-2-0.3-4.4-0.3-5h-15.7v1.1c2.5,0.2,2.8,0.3,2.8,3.3v13.3C330.1,534.4,329.7,534.6,326.8,534.9 M308.8,557.7  c0-0.8,0.1-1.2,0.3-1.4c0.2-0.2,0.8-0.3,1.6-0.3c2.2,0,4.4,1.4,4.4,5c0,1.8-0.5,3.1-1.7,4.1c-0.8,0.6-1.9,0.9-3.5,0.9h-1.1V557.7z   M301.9,575.8v1.1h9.8v-1.1c-2.6-0.2-2.9-0.5-2.9-3.3v-5.1h0.8c1.3,0,1.9,0.4,2.5,1.4c1,1.7,2,3.7,3,5.2c1.4,2.2,2.8,3.1,6.5,3.2  c0.4,0,0.8,0,1.1,0l0.2-1c-0.8-0.2-1.4-0.7-2.2-1.5c-0.7-0.8-1.5-1.8-2.7-3.7c-1-1.5-2.3-3.8-2.9-4.9c2.3-1,4.3-2.7,4.3-5.6  c0-2.1-0.9-3.6-2.3-4.5c-1.4-0.9-3.1-1.2-5.9-1.2H302v1.1c2.6,0.2,2.9,0.5,2.9,3.3v13.3C304.9,575.2,304.5,575.5,301.9,575.8   M305.3,513.8h-9.5v1.1c2.1,0.2,2.6,0.6,3.7,3.2c1.6,4.1,4.7,12,7,18.2h1.5c2.6-7.1,5.9-15.1,6.9-17.6c1.3-3.2,1.9-3.5,4.2-3.8v-1.1  h-7.9v1.1c2.8,0.3,2.9,0.8,2.1,3c-1,3.1-2.8,8-4.7,12.7h-0.1c-1.6-4.2-4.2-10.9-5.2-13.6c-0.5-1.5-0.5-1.8,2-2.1V513.8z   M275.5,575.8v1.1h17c0.3-1,1-4.2,1.2-5.6l-1.1-0.2c-0.6,1.4-1.2,2.6-1.8,3.3c-0.8,0.9-1.9,1.1-4,1.1c-1.4,0-2.6,0-3.2-0.4  c-0.7-0.4-0.8-1.2-0.8-2.8v-6.1h2.6c2.9,0,3.3,0.1,3.7,2.6h1.2v-6.7h-1.2c-0.4,2.4-0.8,2.6-3.7,2.6h-2.6v-7.4c0-1.1,0.1-1.2,1.3-1.2  h2c2.1,0,3,0.2,3.6,0.9c0.5,0.6,1,1.6,1.3,2.9l1.2-0.2c-0.1-2-0.3-4.4-0.3-5H276v1.1c2.5,0.2,2.8,0.3,2.8,3.3v13.3  C278.8,575.3,278.5,575.5,275.5,575.8 M269.5,524.2c0-6.1,3-9.6,6.5-9.6c4.2,0,7.3,4,7.3,10.9c0,6.4-2.9,9.5-6.3,9.5  C272.4,535.1,269.5,530.3,269.5,524.2 M264.9,525c0,6.5,4.8,11.5,11.3,11.5c6.4,0,11.6-4.5,11.6-11.8c0-6.8-5.1-11.3-11.2-11.3  C269.2,513.3,264.9,519,264.9,525 M247.9,553.8c-0.1,1.8-0.3,4.2-0.4,6.5h1.2c0.4-1.6,0.8-2.7,1.3-3.3c0.5-0.6,1.1-1,3.9-1h1.5v16.3  c0,2.8-0.3,3.1-3.3,3.3v1.1h10.6v-1.1c-3.1-0.2-3.4-0.5-3.4-3.3v-16.3h1.8c2.2,0,3,0.2,3.6,0.9c0.5,0.6,0.9,1.6,1.3,3.3l1.1-0.1  c-0.2-2.1-0.3-4.9-0.3-6.4h-0.8c-0.6,0.6-1,0.9-1.9,0.9h-13.6c-1,0-1.4-0.1-1.9-0.9H247.9z M239.8,524.5c0-5.1,2.8-9.8,8-9.8  c3,0,5.4,1.3,6.4,5.2l1.2-0.2c-0.2-2-0.5-3.5-0.8-5.4c-0.9-0.2-3.4-0.9-6.1-0.9c-8,0-13.4,4.8-13.4,11.9c0,5.4,3.8,11.3,12.6,11.3  c2.4,0,5.4-0.7,6.3-0.9c0.6-1.2,1.4-3.7,1.9-5.4l-1.1-0.4c-1.7,3.4-3.7,5.2-6.8,5.2C243.3,535,239.8,530.8,239.8,524.5 M219.1,553.8  c-0.1,1.8-0.3,4.2-0.4,6.5h1.2c0.4-1.6,0.8-2.7,1.3-3.3c0.5-0.6,1.1-1,3.9-1h1.5v16.3c0,2.8-0.3,3.1-3.3,3.3v1.1H234v-1.1  c-3.1-0.2-3.4-0.5-3.4-3.3v-16.3h1.8c2.2,0,3,0.2,3.6,0.9c0.5,0.6,0.9,1.6,1.3,3.3l1.1-0.1c-0.2-2.1-0.3-4.9-0.3-6.4h-0.8  c-0.6,0.6-1,0.9-1.9,0.9h-13.6c-1,0-1.4-0.1-1.9-0.9H219.1z M226.3,513.8h-9.8v1.1c2.6,0.2,2.9,0.4,2.9,3.3v13.3  c0,2.9-0.3,3.1-2.9,3.3v1.1h9.8v-1.1c-2.6-0.2-2.9-0.5-2.9-3.3v-13.3c0-2.9,0.3-3.1,2.9-3.3V513.8z M197.8,567.6  c1-2.6,1.9-5.2,2.9-7.8h0.1l2.7,7.8H197.8z M190.5,575.8v1.1h7.5v-1.1c-2.5-0.3-2.7-0.7-2.1-2.6c0.4-1.4,0.9-2.7,1.3-3.9h6.8  c0.6,1.6,1.2,3.2,1.6,4.4c0.5,1.4,0.3,1.8-1.8,2.1v1.1h9.2v-1.1c-2.2-0.3-2.6-0.7-3.8-3.7c-2.2-5.9-4.4-12-6.5-17.9l-1.5,0.4  l-7,17.6C193.1,575.1,192.7,575.4,190.5,575.8 M169.2,557.7c0-0.8,0.1-1.2,0.3-1.4c0.2-0.2,0.8-0.3,1.6-0.3c2.2,0,4.4,1.4,4.4,5  c0,1.8-0.5,3.1-1.7,4.1c-0.8,0.6-1.9,0.9-3.5,0.9h-1.1V557.7z M162.3,575.8v1.1h9.8v-1.1c-2.6-0.2-2.9-0.5-2.9-3.3v-5.1h0.8  c1.3,0,1.9,0.4,2.5,1.4c1,1.7,2,3.7,3,5.2c1.4,2.2,2.8,3.1,6.5,3.2c0.4,0,0.8,0,1.1,0l0.2-1c-0.8-0.2-1.4-0.7-2.2-1.5  c-0.8-0.8-1.5-1.8-2.7-3.7c-1-1.5-2.3-3.8-2.9-4.9c2.4-1,4.3-2.7,4.3-5.6c0-2.1-0.9-3.6-2.3-4.5c-1.4-0.9-3.1-1.2-5.9-1.2h-9.2v1.1  c2.6,0.2,2.9,0.5,2.9,3.3v13.3C165.3,575.2,164.9,575.5,162.3,575.8 M187.8,490.6v-13.3c0-2.9,0.3-3.1,2.9-3.3v-1.1H181v1.1  c2.6,0.2,2.9,0.4,2.9,3.3v13.3c0,2.9-0.3,3.1-2.9,3.3v1.1h9.8V494C188.1,493.7,187.8,493.5,187.8,490.6 M165.3,513.8h-9.8v1.1  c2.6,0.2,2.9,0.4,2.9,3.3v13.3c0,2.9-0.3,3.1-2.9,3.3v1.1h9.8v-1.1c-2.6-0.2-2.9-0.5-2.9-3.3v-13.3c0-2.9,0.3-3.1,2.9-3.3V513.8z   M153.8,478.6c0.4-1.6,0.8-2.7,1.3-3.3c0.5-0.6,1.1-1,3.9-1h1.5v16.3c0,2.8-0.3,3.1-3.3,3.3v1.1h10.6V494c-3.1-0.2-3.4-0.5-3.4-3.3  v-16.3h1.8c2.2,0,3,0.2,3.6,0.9c0.5,0.6,0.9,1.6,1.3,3.3l1.1-0.1c-0.2-2.1-0.3-4.9-0.3-6.4h-0.8c-0.6,0.6-1,0.9-1.9,0.9h-13.6  c-1,0-1.4-0.1-1.9-0.9H153c-0.1,1.8-0.3,4.2-0.4,6.5H153.8z M138.7,567.6c1-2.6,1.9-5.2,2.9-7.8h0.1l2.7,7.8H138.7z M131.4,575.8  v1.1h7.5v-1.1c-2.5-0.3-2.7-0.7-2.1-2.6c0.4-1.4,0.9-2.7,1.3-3.9h6.8c0.6,1.6,1.2,3.2,1.6,4.4c0.5,1.4,0.3,1.8-1.8,2.1v1.1h9.2v-1.1  c-2.2-0.3-2.6-0.7-3.7-3.7c-2.2-5.9-4.4-12-6.5-17.9l-1.5,0.4l-7,17.6C134.1,575.1,133.6,575.4,131.4,575.8 M130.7,517.5  c0-1.1,0.1-1.6,0.4-1.9c0.3-0.2,1-0.5,2.3-0.5c2.3,0,4.2,0.6,5.6,1.9c2,1.6,3.1,4.3,3.1,7.7c0,5.8-3.1,9.9-8.3,9.9  c-2.4,0-3.1-0.8-3.1-3.3V517.5z M126.7,518.3v13.3c0,2.9-0.3,3.1-3.1,3.3v1.1h8.5c4.2,0,7.7-0.9,10.3-2.8c2.6-2,4.2-5,4.2-9.1  c0-3.2-1.3-5.7-3-7.3c-2.1-2-5.4-2.9-9.7-2.9h-10v1.1C126.4,515.1,126.7,515.3,126.7,518.3 M102.8,566.1c0,5.4,3.8,11.3,12.6,11.3  c2.4,0,5.4-0.7,6.3-0.9c0.6-1.2,1.4-3.7,1.9-5.4l-1.1-0.4c-1.7,3.4-3.7,5.2-6.8,5.2c-4.8,0-8.3-4.2-8.3-10.5c0-5.1,2.8-9.8,8-9.8  c3,0,5.4,1.3,6.4,5.2l1.2-0.2c-0.2-2-0.5-3.5-0.8-5.4c-0.9-0.2-3.4-0.9-6.1-0.9C108.2,554.2,102.8,559,102.8,566.1 M118,490.6v-13.3  c0-2.9,0.3-3.1,2.9-3.3v-1.1h-9.8v1.1c2.6,0.2,2.9,0.4,2.9,3.3v13.3c0,2.9-0.3,3.1-2.9,3.3v1.1h9.8V494  C118.2,493.7,118,493.5,118,490.6 M5.8,428.4h12.8v-0.5l-3.1-2.4v-21.3l3.1-2.4v-0.5H5.8v0.5l3.1,2.4v21.3l-3.1,2.4V428.4z   M32.1,406c0-1.5,1.2-2.6,2.6-2.6c2.1,0,4.6,2.3,6.1,4.5h0.5v-6.5c-0.6-0.2-3.1-0.7-5.9-0.7c-6.1,0-9.3,3-9.3,7.1  c0,3.3,2,5.8,6.2,8.8c3.1,2.2,4.5,3.5,4.5,5.8c0,2.3-1.9,3.5-3.5,3.5c-3,0-5.5-3.8-7.3-7.7h-0.5c0,3.3,0.2,7.9,0.5,9.3  c1.2,0.4,3.5,1.3,7.3,1.3c6.1,0,9.7-3.5,9.7-8.2c0-4.2-2.8-6.4-6.6-9.3C33.2,409.1,32.1,407.7,32.1,406 M74.7,408.6h0.5v-7.4H49.6  v7.4h0.6l4-4.7h4.9v21.4l-3.6,2.6v0.5h13.8v-0.5l-3.6-2.6v-21.4h4.9L74.7,408.6z M71,567.6h-5.7c1-2.6,1.9-5.2,2.9-7.8h0.1L71,567.6  z M71.4,576.8h9.2v-1.1c-2.2-0.3-2.6-0.7-3.7-3.7c-2.2-5.9-4.4-12-6.5-17.9l-1.5,0.4l-7,17.6c-1.2,2.9-1.6,3.2-3.8,3.5v1.1h7.5v-1.1  c-2.5-0.3-2.7-0.7-2.1-2.6c0.4-1.4,0.9-2.7,1.3-3.9h6.8c0.6,1.6,1.2,3.2,1.6,4.4c0.5,1.4,0.3,1.8-1.8,2.1V576.8z M81.7,428.4h12.8  v-0.5l-3.1-2.4v-21.3l3.1-2.4v-0.5H81.7v0.5l3.1,2.4v21.3l-3.1,2.4V428.4z M126,408.6h0.5v-7.4h-25.6v7.4h0.6l4-4.7h4.9v21.4  l-3.6,2.6v0.5h13.8v-0.5l-3.6-2.6v-21.4h4.9L126,408.6z M138.1,472.4c-4.7,0-7.5,2.9-7.5,6.4c0,3.5,2.8,5.3,5.8,6.8  c2.6,1.3,4.2,2.6,4.2,4.8c0,2.3-1.4,3.8-3.7,3.8c-3.3,0-5.2-3.7-5.8-5.8l-1.2,0.3c0.2,1.9,0.7,4.8,1,5.6c0.4,0.2,1,0.4,1.9,0.7  c0.9,0.3,2.1,0.5,3.4,0.5c4.8,0,8-3,8-6.7c0-3.5-2.7-5.3-6-7c-2.9-1.4-4.3-2.6-4.3-4.7c0-1.9,1.3-3.5,3.5-3.5c2.8,0,4,2.5,4.7,4.6  l1.1-0.2c-0.3-2.1-0.5-3.6-0.6-4.8C141.8,473,140.1,472.4,138.1,472.4 M160,404.2l3.1-2.4v-0.5H153v0.5l3.5,2.4v14.8  c0,3-2.6,6-6.5,6c-5.2,0-7.6-2.6-7.6-6v-14.7l3.5-2.4v-0.5h-13.2v0.5l3.1,2.4v15.1c0,4.8,3.9,9.7,12.8,9.7c8.2,0,11.4-6.3,11.4-9.9  V404.2z M194.4,408.6h0.5v-7.4h-25.6v7.4h0.6l4-4.7h4.9v21.4l-3.6,2.6v0.5h13.8v-0.5l-3.6-2.6v-21.4h4.9L194.4,408.6z M201.2,520.1  c0,1.8-0.5,3.1-1.7,4.1c-0.8,0.6-1.9,0.9-3.5,0.9h-1.1v-8.3c0-0.8,0.1-1.2,0.3-1.4c0.2-0.2,0.8-0.3,1.6-0.3  C199,515.1,201.2,516.4,201.2,520.1 M203.2,515c-1.4-0.9-3.1-1.2-5.9-1.2h-9.2v1.1c2.6,0.2,2.9,0.5,2.9,3.3v13.3  c0,2.8-0.4,3.1-3,3.3v1.1h9.8v-1.1c-2.6-0.2-2.9-0.5-2.9-3.3v-5.1h0.8c1.3,0,1.9,0.4,2.5,1.4c1,1.7,2,3.7,3,5.2  c1.4,2.2,2.8,3.1,6.5,3.2c0.4,0,0.8,0,1.1,0l0.2-1c-0.8-0.2-1.4-0.6-2.2-1.5c-0.8-0.8-1.5-1.8-2.7-3.6c-1-1.5-2.3-3.8-2.9-4.9  c2.4-1,4.3-2.7,4.3-5.6C205.5,517.4,204.5,515.9,203.2,515 M202.6,472.9c-1,0-1.4-0.1-1.9-0.9h-0.8c-0.1,1.8-0.3,4.2-0.4,6.5h1.2  c0.4-1.6,0.8-2.7,1.3-3.3c0.5-0.6,1.1-1,3.9-1h1.5v16.3c0,2.8-0.3,3.1-3.3,3.3v1.1h10.6V494c-3.1-0.2-3.4-0.5-3.4-3.3v-16.3h1.8  c2.2,0,3,0.2,3.6,0.9c0.5,0.6,0.9,1.6,1.3,3.3l1.1-0.1c-0.2-2.1-0.3-4.9-0.3-6.4h-0.8c-0.6,0.6-1,0.9-1.9,0.9H202.6z M223.1,414.9  c0,6.4-3.5,11-7.2,11c-4,0-7.7-4.7-7.7-11c0-6.3,3.6-11.3,7.4-11.3C219.4,403.6,223.1,408.4,223.1,414.9 M230.2,414.4  c0-8.3-6.7-13.7-14.4-13.7c-7.7,0-14.6,6-14.6,14.6c0,8.4,7.2,13.6,14.7,13.6C223,428.9,230.2,423,230.2,414.4 M246.4,481v3.2  c0,5.7-1.7,9.1-6.1,9.1c-3.9,0-5.8-3-5.8-8.3v-7.5c0-3.2,0.3-3.4,2.9-3.6v-1.1h-9.7v1.1c2.6,0.2,2.9,0.4,2.9,3.6v8.2  c0,4,1,6.5,2.9,8c1.6,1.2,3.7,1.7,5.8,1.7c2.4,0,4.7-0.8,6.2-2.5c1.9-2,2.5-4.9,2.5-8.7V481c0-2.7,0.1-4,0.2-5c0.2-1.3,1-1.9,2.9-2  v-1.1h-8.4v1.1c2.4,0.1,3.1,0.7,3.3,1.9C246.2,477,246.4,478.4,246.4,481 M274.5,417.4l2.6-2.4v-0.5h-12.4v0.5l3.6,2.4v7.8  c-0.7,0.5-2.1,0.9-3.6,0.9c-4.9,0-9.2-5-9.2-11.7c0-6.5,4.3-10.8,8.4-10.8c3.4,0,6.8,2.8,8.9,5.2h0.6v-7.1c-0.8-0.1-4.7-0.9-9-0.9  c-9.8,0-16,6.6-16,14.3c0,7.8,6.4,13.9,15.6,13.9c4.9,0,9-1.5,10.5-2V417.4z M277.8,478.5l1.1-0.1c-0.2-2.1-0.3-4.9-0.3-6.4h-0.8  c-0.6,0.6-1,0.9-1.9,0.9h-13.6c-1,0-1.4-0.1-1.9-0.9h-0.8c-0.1,1.8-0.3,4.2-0.4,6.5h1.2c0.4-1.6,0.8-2.7,1.3-3.3  c0.5-0.6,1.1-1,3.9-1h1.5v16.3c0,2.8-0.3,3.1-3.3,3.3v1.1h10.6V494c-3.1-0.2-3.4-0.5-3.4-3.3v-16.3h1.8c2.2,0,3,0.2,3.6,0.9  C277,475.8,277.4,476.8,277.8,478.5 M283,428.4h12.8v-0.5l-3.1-2.4v-21.3l3.1-2.4v-0.5H283v0.5l3.1,2.4v21.3l-3.1,2.4V428.4z   M305.5,484.7c0,6.4-2.9,9.5-6.3,9.5c-4.5,0-7.4-4.8-7.4-10.9c0-6.1,3-9.6,6.5-9.6C302.4,473.8,305.5,477.7,305.5,484.7   M298.9,472.4c-7.5,0-11.8,5.8-11.8,11.7c0,6.5,4.8,11.5,11.3,11.5c6.4,0,11.6-4.5,11.6-11.8C310.1,477,305,472.4,298.9,472.4   M316.2,418.8h-6.3l3-8L316.2,418.8z M315.9,428.4h12.7v-0.5l-2.8-2.4l-10.4-24.4h-1.8l-9.5,24.4l-2.8,2.4v0.5h9.6v-0.5l-3.3-2.6  l1.4-3.7h8.5l1.6,3.9l-3.1,2.4V428.4z M339.8,475.8c0-0.7,0.1-1.1,0.3-1.3c0.2-0.2,0.7-0.3,1.5-0.3c2.3,0,4.6,1.4,4.6,5.1  c0,4.5-2.7,5.5-4.3,5.5c-0.9,0-1.6-0.2-2.1-0.3V475.8z M335.9,477.4v13.3c0,2.9-0.3,3.1-2.9,3.3v1.1h10.1V494  c-3-0.2-3.3-0.4-3.3-3.3v-4.9l2.4,0.6c0.4,0,0.9,0,1.4,0c3.5-0.4,6.8-2.5,6.8-7c0-2.2-0.9-3.9-2.4-4.9c-1.4-1-3.3-1.4-5.9-1.4h-9  v1.1C335.6,474.2,335.9,474.4,335.9,477.4 M361.7,404.2l3.1-2.5v-0.5h-10.5v0.5l4,2.5v14.6l-15.7-17.6h-9v0.5l3.6,3.5v20.2l-3.1,2.5  v0.5h10.8v-0.5l-4.2-2.5v-16.5l17.7,19.5h3.5V404.2z M398.7,404.2l3.1-2.5v-0.5h-10.5v0.5l3.9,2.5v14.6l-15.7-17.6h-9v0.5l3.6,3.5  v20.2l-3.1,2.5v0.5h10.8v-0.5l-4.2-2.5v-16.5l17.7,19.5h3.5V404.2z M403.7,483.7c0,5.8-3.1,9.9-8.3,9.9c-2.4,0-3.1-0.8-3.1-3.3  v-13.8c0-1.1,0.1-1.6,0.4-1.9c0.3-0.2,1-0.5,2.3-0.5c2.3,0,4.2,0.6,5.6,1.9C402.6,477.6,403.7,480.4,403.7,483.7 M408.2,483.1  c0-3.2-1.3-5.7-3-7.3c-2.1-2-5.4-2.9-9.7-2.9h-10v1.1c2.5,0.2,2.8,0.4,2.8,3.3v13.3c0,2.9-0.3,3.1-3.1,3.3v1.1h8.5  c4.2,0,7.7-0.9,10.3-2.8C406.6,490.2,408.2,487.2,408.2,483.1 M407.9,428.4h12.8v-0.5l-3.1-2.4v-21.3l3.1-2.4v-0.5h-12.8v0.5  l3.1,2.4v21.3l-3.1,2.4V428.4z M454.7,404.2l3.1-2.5v-0.5h-10.5v0.5l4,2.5v14.6l-15.7-17.6h-9v0.5l3.6,3.5v20.2l-3.1,2.5v0.5h10.8  v-0.5l-4.2-2.5v-16.5l17.7,19.5h3.4V404.2z M458.5,576.8c0.3-1,1-4.2,1.2-5.6l-1.1-0.2c-0.6,1.4-1.2,2.6-1.8,3.3  c-0.8,0.9-1.9,1.1-4,1.1c-1.4,0-2.6,0-3.2-0.4c-0.7-0.4-0.8-1.2-0.8-2.8v-6.1h2.6c2.9,0,3.3,0.1,3.7,2.6h1.2v-6.7H455  c-0.4,2.4-0.8,2.6-3.7,2.6h-2.6v-7.4c0-1.1,0.1-1.2,1.3-1.2h2c2.1,0,3,0.2,3.6,0.9c0.5,0.6,1,1.6,1.3,2.9l1.2-0.2  c-0.1-2-0.3-4.4-0.3-5h-15.7v1.1c2.5,0.2,2.8,0.3,2.8,3.3v13.3c0,2.9-0.3,3.1-3.3,3.3v1.1H458.5z M462.7,472  c-0.1,1.8-0.3,4.2-0.4,6.5h1.2c0.4-1.6,0.8-2.7,1.3-3.3c0.5-0.6,1.1-1,3.9-1h1.5v16.3c0,2.8-0.3,3.1-3.3,3.3v1.1h10.6V494  c-3.1-0.2-3.4-0.5-3.4-3.3v-16.3h1.8c2.2,0,3,0.2,3.6,0.9c0.5,0.6,0.9,1.6,1.3,3.3l1.1-0.1c-0.2-2.1-0.3-4.9-0.3-6.4h-0.8  c-0.6,0.6-1,0.9-1.9,0.9h-13.6c-1,0-1.4-0.1-1.9-0.9H462.7z M477.7,418.8h-6.3l3-8L477.7,418.8z M477.4,428.4h12.7v-0.5l-2.8-2.4  l-10.4-24.4H475l-9.5,24.4l-2.8,2.4v0.5h9.6v-0.5l-3.2-2.6l1.4-3.7h8.5l1.6,3.9l-3.1,2.4V428.4z M503.8,479.2c0,1.8-0.5,3.1-1.7,4.1  c-0.8,0.7-1.9,0.9-3.5,0.9h-1.1v-8.3c0-0.8,0.1-1.2,0.3-1.4c0.2-0.2,0.8-0.3,1.6-0.3C501.6,474.2,503.8,475.5,503.8,479.2   M508,478.7c0-2.1-0.9-3.6-2.3-4.5c-1.4-0.9-3.1-1.2-5.9-1.2h-9.2v1.1c2.6,0.2,2.9,0.5,2.9,3.3v13.3c0,2.8-0.4,3.1-3,3.3v1.1h9.8  V494c-2.6-0.2-2.9-0.5-2.9-3.3v-5.1h0.8c1.3,0,1.9,0.4,2.5,1.4c1,1.7,2,3.7,3,5.2c1.4,2.2,2.8,3.1,6.5,3.2c0.4,0,0.8,0,1.1,0l0.2-1  c-0.8-0.2-1.4-0.7-2.2-1.5c-0.7-0.7-1.5-1.8-2.7-3.6c-1-1.5-2.3-3.8-2.9-4.9C506.1,483.3,508,481.6,508,478.7 M533.3,417.4l2.6-2.4  v-0.5h-12.4v0.5l3.6,2.4v7.8c-0.7,0.5-2.1,0.9-3.6,0.9c-4.9,0-9.2-5-9.2-11.7c0-6.5,4.3-10.8,8.4-10.8c3.4,0,6.8,2.8,8.9,5.2h0.6  v-7.1c-0.8-0.1-4.7-0.9-9-0.9c-9.8,0-16,6.6-16,14.3c0,7.8,6.4,13.9,15.6,13.9c4.9,0,9-1.5,10.5-2V417.4z M541,520.1  c0,1.8-0.5,3.1-1.7,4.1c-0.8,0.6-1.9,0.9-3.5,0.9h-1.1v-8.3c0-0.8,0.1-1.2,0.3-1.4c0.2-0.2,0.8-0.3,1.6-0.3  C538.8,515.1,541,516.4,541,520.1 M543,515c-1.4-0.9-3.1-1.2-5.9-1.2h-9.2v1.1c2.6,0.2,2.9,0.5,2.9,3.3v13.3c0,2.8-0.4,3.1-3,3.3  v1.1h9.8v-1.1c-2.6-0.2-2.9-0.5-2.9-3.3v-5.1h0.8c1.3,0,1.9,0.4,2.5,1.4c1,1.7,2,3.7,3,5.2c1.4,2.2,2.8,3.1,6.5,3.2  c0.4,0,0.8,0,1.1,0l0.2-1c-0.8-0.2-1.4-0.6-2.2-1.5c-0.8-0.8-1.5-1.8-2.7-3.6c-1-1.5-2.3-3.8-2.9-4.9c2.4-1,4.3-2.7,4.3-5.6  C545.3,517.4,544.3,515.9,543,515 M537.8,484.3c0,5.4,3.8,11.3,12.6,11.3c2.4,0,5.4-0.7,6.3-0.9c0.6-1.2,1.4-3.7,1.9-5.4l-1.1-0.4  c-1.7,3.4-3.7,5.2-6.8,5.2c-4.8,0-8.3-4.2-8.3-10.5c0-5.1,2.8-9.8,8-9.8c3,0,5.4,1.3,6.4,5.2l1.2-0.2c-0.2-2-0.5-3.5-0.8-5.4  c-0.9-0.2-3.4-0.9-6.1-0.9C543.2,472.4,537.8,477.2,537.8,484.3 M555.8,418.8h-6.3l3-8L555.8,418.8z M555.5,428.4h12.7v-0.5  l-2.8-2.4l-10.4-24.4h-1.8l-9.5,24.4l-2.8,2.4v0.5h9.6v-0.5l-3.3-2.6l1.4-3.7h8.5l1.6,3.9l-3.1,2.4V428.4z M578.6,473.8  c4.2,0,7.3,4,7.3,10.9c0,6.4-2.9,9.5-6.3,9.5c-4.5,0-7.4-4.8-7.4-10.9C572.1,477.3,575.1,473.8,578.6,473.8 M579.3,472.4  c-7.5,0-11.8,5.8-11.8,11.7c0,6.5,4.8,11.5,11.3,11.5c6.4,0,11.6-4.5,11.6-11.8C590.5,477,585.3,472.4,579.3,472.4 M580.7,406  c0-1.5,1.1-2.6,2.6-2.6c2.1,0,4.6,2.3,6.1,4.5h0.5v-6.5c-0.6-0.2-3.1-0.7-5.9-0.7c-6.1,0-9.3,3-9.3,7.1c0,3.3,2,5.8,6.2,8.8  c3.1,2.2,4.5,3.5,4.5,5.8c0,2.3-1.9,3.5-3.5,3.5c-3,0-5.5-3.8-7.3-7.7h-0.5c0,3.3,0.2,7.9,0.5,9.3c1.2,0.4,3.5,1.3,7.3,1.3  c6.1,0,9.7-3.5,9.7-8.2c0-4.2-2.8-6.4-6.6-9.3C581.9,409.1,580.7,407.7,580.7,406 M603.6,554.2c-8,0-13.4,4.8-13.4,11.9  c0,5.4,3.8,11.3,12.6,11.3c2.4,0,5.4-0.7,6.3-0.9c0.6-1.2,1.4-3.7,1.9-5.4l-1.1-0.4c-1.7,3.4-3.7,5.2-6.8,5.2  c-4.8,0-8.3-4.2-8.3-10.5c0-5.1,2.8-9.8,8-9.8c3,0,5.4,1.3,6.4,5.2l1.2-0.2c-0.2-2-0.5-3.5-0.8-5.4  C608.8,554.9,606.4,554.2,603.6,554.2 M598.4,428.4h22.3v-8.9h-0.6l-4.5,6.2h-7.7v-21.5l3.1-2.4v-0.5h-12.7v0.5l3,2.4v21.3l-3,2.4  V428.4z M627.1,428.4h12.8v-0.5l-3.1-2.4v-21.3l3.1-2.4v-0.5h-12.8v0.5l3.1,2.4v21.3l-3.1,2.4V428.4z M638.3,566.4  c0,6.4-2.9,9.5-6.3,9.5c-4.5,0-7.4-4.8-7.4-10.9c0-6.1,3-9.6,6.5-9.6C635.2,555.5,638.3,559.5,638.3,566.4 M642.9,565.5  c0-6.8-5.1-11.3-11.2-11.3c-7.5,0-11.8,5.8-11.8,11.7c0,6.5,4.8,11.5,11.3,11.5C637.6,577.3,642.9,572.9,642.9,565.5 M673.9,404.2  l3.1-2.5v-0.5h-10.5v0.5l3.9,2.5v14.6l-15.7-17.6h-9v0.5l3.6,3.5v20.2l-3.1,2.5v0.5H657v-0.5l-4.2-2.5v-16.5l17.7,19.5h3.5V404.2z   M692.8,425.5v-21.3l3.1-2.4v-0.5h-12.8v0.5l3.1,2.4v21.3l-3.1,2.4v0.5h12.8v-0.5L692.8,425.5z"/>
</svg>