<svg version="1.1" xmlns="http://www.w3.org/2000/svg" xmlns:xlink="http://www.w3.org/1999/xlink" x="0px" y="0px" width="664.9px" height="170.9px" viewBox="0 0 664.9 170.9" style="overflow:visible;enable-background:new 0 0 664.9 170.9;" xml:space="preserve" data-darkreader-inline-invert="">
    <g>
        <g>
            <g>
                <path class="stLogo0" d="M0,105.1c0-37.9,29.4-65.8,66.2-65.8s66.2,27.9,66.2,65.8s-29.4,65.8-66.2,65.8S0,143,0,105.1z M111.5,105.1
                    c0-27.2-18.7-47.5-45.3-47.5S20.9,78,20.9,105.1s18.7,47.5,45.3,47.5S111.5,132.2,111.5,105.1z"></path>
                <path class="stLogo0" d="M241.8,169.2h-24L196,138.1c-2.8,0.4-6,0.6-9.2,0.6h-12.6v30.6H154V40.9h32.8c35.3,0,54.7,19.4,54.7,49
                    c0,19.8-8.9,35.1-25.7,42.8L241.8,169.2z M186,121.3c24.7,0,34.7-11.7,34.7-31.3c0-19.4-10.2-31.1-34.7-31.1h-11.9v62.4H186z"></path>
                <path class="stLogo0" d="M256.4,105.1c0-37.9,29.4-65.8,66.2-65.8s66.2,27.9,66.2,65.8s-29.4,65.8-66.2,65.8S256.4,143,256.4,105.1z
                    M367.8,105.1c0-27.2-18.7-47.5-45.3-47.5c-26.6,0-45.3,20.4-45.3,47.5s18.7,47.5,45.3,47.5C349.2,152.6,367.8,132.2,367.8,105.1
                    z"></path>
                <path class="stLogo0" d="M406.9,40.9h45.5c25.6,0,37.5,14.5,37.5,32.8c0,11.3-6,19.6-15.5,24.3c15.1,4.3,24.5,15.8,24.5,32.4
                    c0,21.7-13.8,38.7-43.2,38.7h-48.8V40.9z M451.2,91.3c14,0,18.7-6.4,18.7-17c0-9.8-4.5-16-18.7-16h-24.3v33H451.2z M454.6,151.8
                    c17.7,0,23.8-8.9,23.8-22.1c0-13.2-7.2-22.3-24.7-22.3h-26.8v44.3h27.7V151.8z"></path>
                <path class="stLogo0" d="M518,40.9h20.2v128.2H518V40.9z"></path>
                <path class="stLogo0" d="M561,40.9h22.8l25.6,40.6l25.7-40.6h21.3c0,0-36.2,57.3-36.4,57.3l44.9,70.9h-22.8l-33.4-52.8l-33.4,52.8
                    H554l44-69.5C598,99.4,561,40.9,561,40.9z"></path>
            </g>
            <g>
                <path class="stLogo1" d="M302.1,10.2h-27.3c0,11.3,9.2,20.5,20.5,20.5h27.3C322.6,19.5,313.4,10.2,302.1,10.2z"></path>
                <path class="stLogo2" d="M297,5.1h-23.2c0,11.3,5.1,20.5,16.4,20.5h27.3C317.4,14.3,308.2,5.1,297,5.1z"></path>
                <path class="stLogo3" d="M291.9,0h-27.3c0,11.3,9.2,20.5,20.5,20.5h27.3C312.3,9.2,303.1,0,291.9,0z"></path>
            </g>
        </g>
    </g>
</svg>